<svg xmlns="http://www.w3.org/2000/svg" xmlns:xlink="http://www.w3.org/1999/xlink" width="512" height="512" viewBox="0 0 512 512"><defs><clipPath id="b"><rect width="512" height="512"/></clipPath></defs><g id="a" clip-path="url(#b)"><g transform="translate(670.69 4537.209)"><path d="M-333.91-4422.01a1.014,1.014,0,0,0-.27-.51,1.057,1.057,0,0,0-.42-.39,1.539,1.539,0,0,0-1.15-.15,1.459,1.459,0,0,0-.9.69l-.86,1.8a1.221,1.221,0,0,0-.17.56,1.109,1.109,0,0,0,.02.6,1.2,1.2,0,0,0,.27.51,1.213,1.213,0,0,0,.42.39,1.564,1.564,0,0,0,1.16.15,1.486,1.486,0,0,0,.9-.69l.85-1.8a1.124,1.124,0,0,0,.18-.56A1.021,1.021,0,0,0-333.91-4422.01Zm12.55,4.64a1.059,1.059,0,0,0-.18-.55,1.153,1.153,0,0,0-.39-.43,1.082,1.082,0,0,0-.51-.26,1.449,1.449,0,0,0-1.15.15,1.523,1.523,0,0,0-.69.9c-.04.12-.09.25-.13.37a5.4,5.4,0,0,1-.48.81,1.148,1.148,0,0,0-.3.46,1.294,1.294,0,0,0-.13.58,1.3,1.3,0,0,0,.13.58,1.176,1.176,0,0,0,.31.48,1.535,1.535,0,0,0,1.06.44,1.523,1.523,0,0,0,1.07-.44,7.17,7.17,0,0,0,.82-1.16,6.4,6.4,0,0,0,.54-1.33A1.217,1.217,0,0,0-321.36-4417.37Zm0,0a1.059,1.059,0,0,0-.18-.55,1.153,1.153,0,0,0-.39-.43,1.082,1.082,0,0,0-.51-.26,1.449,1.449,0,0,0-1.15.15,1.523,1.523,0,0,0-.69.9c-.04.12-.09.25-.13.37a5.4,5.4,0,0,1-.48.81,1.148,1.148,0,0,0-.3.46,1.294,1.294,0,0,0-.13.58,1.3,1.3,0,0,0,.13.58,1.176,1.176,0,0,0,.31.48,1.535,1.535,0,0,0,1.06.44,1.523,1.523,0,0,0,1.07-.44,7.17,7.17,0,0,0,.82-1.16,6.4,6.4,0,0,0,.54-1.33A1.217,1.217,0,0,0-321.36-4417.37Zm-12.55-4.64a1.014,1.014,0,0,0-.27-.51,1.057,1.057,0,0,0-.42-.39,1.539,1.539,0,0,0-1.15-.15,1.459,1.459,0,0,0-.9.69l-.86,1.8a1.221,1.221,0,0,0-.17.56,1.109,1.109,0,0,0,.02.6,1.2,1.2,0,0,0,.27.51,1.213,1.213,0,0,0,.42.39,1.564,1.564,0,0,0,1.16.15,1.486,1.486,0,0,0,.9-.69l.85-1.8a1.124,1.124,0,0,0,.18-.56A1.021,1.021,0,0,0-333.91-4422.01Zm0,0a1.014,1.014,0,0,0-.27-.51,1.057,1.057,0,0,0-.42-.39,1.539,1.539,0,0,0-1.15-.15,1.459,1.459,0,0,0-.9.69l-.86,1.8a1.221,1.221,0,0,0-.17.56,1.109,1.109,0,0,0,.02.6,1.2,1.2,0,0,0,.27.51,1.213,1.213,0,0,0,.42.39,1.564,1.564,0,0,0,1.16.15,1.486,1.486,0,0,0,.9-.69l.85-1.8a1.124,1.124,0,0,0,.18-.56A1.021,1.021,0,0,0-333.91-4422.01Zm12.55,4.64a1.059,1.059,0,0,0-.18-.55,1.153,1.153,0,0,0-.39-.43,1.082,1.082,0,0,0-.51-.26,1.449,1.449,0,0,0-1.15.15,1.523,1.523,0,0,0-.69.9c-.04.12-.09.25-.13.37a5.4,5.4,0,0,1-.48.81,1.148,1.148,0,0,0-.3.46,1.294,1.294,0,0,0-.13.58,1.3,1.3,0,0,0,.13.58,1.176,1.176,0,0,0,.31.48,1.535,1.535,0,0,0,1.06.44,1.523,1.523,0,0,0,1.07-.44,7.17,7.17,0,0,0,.82-1.16,6.4,6.4,0,0,0,.54-1.33A1.217,1.217,0,0,0-321.36-4417.37Zm0,0a1.059,1.059,0,0,0-.18-.55,1.153,1.153,0,0,0-.39-.43,1.082,1.082,0,0,0-.51-.26,1.449,1.449,0,0,0-1.15.15,1.523,1.523,0,0,0-.69.9c-.04.12-.09.25-.13.37a5.4,5.4,0,0,1-.48.81,1.148,1.148,0,0,0-.3.46,1.294,1.294,0,0,0-.13.58,1.3,1.3,0,0,0,.13.58,1.176,1.176,0,0,0,.31.48,1.535,1.535,0,0,0,1.06.44,1.523,1.523,0,0,0,1.07-.44,7.17,7.17,0,0,0,.82-1.16,6.4,6.4,0,0,0,.54-1.33A1.217,1.217,0,0,0-321.36-4417.37Zm-12.55-4.64a1.014,1.014,0,0,0-.27-.51,1.057,1.057,0,0,0-.42-.39,1.539,1.539,0,0,0-1.15-.15,1.459,1.459,0,0,0-.9.69l-.86,1.8a1.221,1.221,0,0,0-.17.56,1.109,1.109,0,0,0,.02.6,1.2,1.2,0,0,0,.27.51,1.213,1.213,0,0,0,.42.39,1.564,1.564,0,0,0,1.16.15,1.486,1.486,0,0,0,.9-.69l.85-1.8a1.124,1.124,0,0,0,.18-.56A1.021,1.021,0,0,0-333.91-4422.01Zm0,0a1.014,1.014,0,0,0-.27-.51,1.057,1.057,0,0,0-.42-.39,1.539,1.539,0,0,0-1.15-.15,1.459,1.459,0,0,0-.9.69l-.86,1.8a1.221,1.221,0,0,0-.17.56,1.109,1.109,0,0,0,.02.6,1.2,1.2,0,0,0,.27.51,1.213,1.213,0,0,0,.42.39,1.564,1.564,0,0,0,1.16.15,1.486,1.486,0,0,0,.9-.69l.85-1.8a1.124,1.124,0,0,0,.18-.56A1.021,1.021,0,0,0-333.91-4422.01Zm12.55,4.64a1.059,1.059,0,0,0-.18-.55,1.153,1.153,0,0,0-.39-.43,1.082,1.082,0,0,0-.51-.26,1.449,1.449,0,0,0-1.15.15,1.523,1.523,0,0,0-.69.9c-.04.12-.09.25-.13.37a5.4,5.4,0,0,1-.48.81,1.148,1.148,0,0,0-.3.46,1.294,1.294,0,0,0-.13.58,1.3,1.3,0,0,0,.13.58,1.176,1.176,0,0,0,.31.48,1.535,1.535,0,0,0,1.06.44,1.523,1.523,0,0,0,1.07-.44,7.17,7.17,0,0,0,.82-1.16,6.4,6.4,0,0,0,.54-1.33A1.217,1.217,0,0,0-321.36-4417.37Zm0,0a1.059,1.059,0,0,0-.18-.55,1.153,1.153,0,0,0-.39-.43,1.082,1.082,0,0,0-.51-.26,1.449,1.449,0,0,0-1.15.15,1.523,1.523,0,0,0-.69.9c-.04.12-.09.25-.13.37a5.4,5.4,0,0,1-.48.81,1.148,1.148,0,0,0-.3.46,1.294,1.294,0,0,0-.13.58,1.3,1.3,0,0,0,.13.58,1.176,1.176,0,0,0,.31.48,1.535,1.535,0,0,0,1.06.44,1.523,1.523,0,0,0,1.07-.44,7.17,7.17,0,0,0,.82-1.16,6.4,6.4,0,0,0,.54-1.33A1.217,1.217,0,0,0-321.36-4417.37Zm-12.82-5.15a1.057,1.057,0,0,0-.42-.39,1.539,1.539,0,0,0-1.15-.15,1.459,1.459,0,0,0-.9.69l-.86,1.8a1.221,1.221,0,0,0-.17.56,1.109,1.109,0,0,0,.02.6,1.2,1.2,0,0,0,.27.51,1.213,1.213,0,0,0,.42.39,1.564,1.564,0,0,0,1.16.15,1.486,1.486,0,0,0,.9-.69l.85-1.8a1.124,1.124,0,0,0,.18-.56,1.021,1.021,0,0,0-.03-.6A1.014,1.014,0,0,0-334.18-4422.52Zm96.38-23.65q-4.035,10.815-8.08,21.64c-2.55,6.82-5.06,13.68-8.66,20.04-6.13,10.82-14.7,20.01-24.2,27.96a36.167,36.167,0,0,0-1.58-8.69,38.222,38.222,0,0,0-1.87-4.76,16.16,16.16,0,0,1-1.78-4.83.879.879,0,0,0-.02-.17,57.328,57.328,0,0,0,26.82-25.34,57.12,57.12,0,0,0,5.54-16.1,1.516,1.516,0,0,0,.46-1.99,20.642,20.642,0,0,1-3.36-11.01,1.5,1.5,0,0,0-1.5-1.5,1.5,1.5,0,0,0-1.5,1.5,23.756,23.756,0,0,0,3.17,11.54,3.168,3.168,0,0,0-.1.33,54.29,54.29,0,0,1-37.05,42.3,54.372,54.372,0,0,1-17.08,2.45,1.649,1.649,0,0,0-.45.06c-1.16-5.35-2.89-10.79-2.63-16.24a4.8,4.8,0,0,0,1,.2,3.312,3.312,0,0,0,2.91-1.46,3.777,3.777,0,0,0,.58-2.66,3.758,3.758,0,0,0-1.39-2.44,5.206,5.206,0,0,0-1.16-.69,26.5,26.5,0,0,0,1.63-6.97c.4-4.8-.9-10.1-4.52-13.49a12.541,12.541,0,0,0-10.5-3.37,1.341,1.341,0,0,0-.9-.28c-9.29.18-16.17,7.52-19.26,15.72-.03.07-.05.14-.08.21a4.723,4.723,0,0,0-1.58-.27,3.531,3.531,0,0,0-2.82.93,4.553,4.553,0,0,0-.52,5.33,4.758,4.758,0,0,0,2.43,1.94,1.01,1.01,0,0,0,.46.05c-.13.78-.25,1.56-.35,2.34a5.108,5.108,0,0,0-3.24,6.46,4.619,4.619,0,0,0,.25.61,10.791,10.791,0,0,0-4.75,6.97c-.42,2.06-.26,6.11,1.66,7.54a3.934,3.934,0,0,0,1.94,3.76,6.269,6.269,0,0,0,1.01.49,131.846,131.846,0,0,0-18.22,8.53c-1.68.93-3.37,1.87-5,2.89-1.81,1.14-3.48,2.52-5.28,3.69-3.36,2.17-6.88,4.07-10.37,6.02a98.4,98.4,0,0,0-10.37,6.49,58.254,58.254,0,0,1-10.45,5.93c-3.47,1.57-7.02,2.98-10.44,4.65q-2.49,1.2-4.84,2.64c-.5.31-.98.66-1.46.99a1.619,1.619,0,0,0-.75-.24c-3.21-.17-6.44-.43-9.66-.5-2.72-.06-5.62.23-7.88,1.9a1.539,1.539,0,0,0-.54,2.05,1.509,1.509,0,0,0,2.05.54c2.02-1.49,4.5-1.56,6.91-1.47,2.66.1,5.31.26,7.97.42v.28a18.628,18.628,0,0,0,2.62,8.99c-1.57.85-3.01,1.98-4.53,2.9a40.457,40.457,0,0,1-7.28,3.47,1.54,1.54,0,0,0-1.05,1.85,1.52,1.52,0,0,0,1.84,1.05,45.145,45.145,0,0,0,7.56-3.51c1.9-1.12,3.7-2.74,5.77-3.56,2.45,1.03,5.98.18,8.22-.33,8.09-1.84,16.08-4.03,24.02-6.42,10.45-3.16,20.78-6.66,31.15-10.07a141.758,141.758,0,0,0-3.43,49.54,1.3,1.3,0,0,0-.15,1.33c-7,16.66-11.8,34.46-11.24,52.66.49,16.2,5.45,31.92,12.72,46.34.82,1.64,1.68,3.26,2.56,4.86.08.14.16.28.23.42l.96,1.71c.85,1.48,1.72,2.94,2.61,4.4.24.38.48.8.72,1.23.42.73.85,1.48,1.35,2.18a7.368,7.368,0,0,0,1.93,2c.02.02.05.03.07.05,2.01,1.28,4.51.57,6.67.19l8.43-1.45a1.523,1.523,0,0,0,1.04-1.88,2.02,2.02,0,0,0-.11-.26l-.03-.06c-.47-.89-.92-1.79-1.36-2.69-.37-.73-.72-1.46-1.05-2.2-.54-1.13-1.05-2.27-1.55-3.41a123.466,123.466,0,0,1-8.42-28.65,57.69,57.69,0,0,1-.16-19.53,45.712,45.712,0,0,1,6.08-15.34,106.6,106.6,0,0,1,7.13-10.13,115.512,115.512,0,0,0-1.43,19.48,43.524,43.524,0,0,0,6.9,23.16c4.51,6.84,10.31,12.95,16.01,18.81a233.763,233.763,0,0,0,21.25,19.29,1.558,1.558,0,0,0,1.82.23l7.18-4.81c.88-.59,1.93-1.16,2.25-2.23.39-1.28-.36-2.24-1.1-3.19a143.906,143.906,0,0,1-8.97-12.93,146.345,146.345,0,0,1-7.49-13.76q-1.71-3.615-3.23-7.32c-.97-2.4-2.5-5.18-2.24-7.83.26-2.62,1.42-5.12,2.36-7.55a72.816,72.816,0,0,0,2.32-7.67,128.289,128.289,0,0,0,3.41-16.49,61.942,61.942,0,0,0,.05-17.04,20.709,20.709,0,0,0-3.11-8.81c3.25-17.99,6.06-36.25,4.54-54.54-.29-3.47-.75-6.93-1.37-10.35,10.78-7.03,21.12-14.91,29.86-24.38a95.514,95.514,0,0,0,11.69-15.38,115.12,115.12,0,0,0,9-19.65q4.65-12.42,9.27-24.83C-234.23-4447.18-237.13-4447.96-237.8-4446.17Zm-72.76,33.06a3.648,3.648,0,0,1,.28.28.835.835,0,0,1,.09.16.474.474,0,0,1,.05.18,1.769,1.769,0,0,1,0,.23.862.862,0,0,1-.05.23l-.09.15-.04.03-.04.03-.05.01h-.24a2.493,2.493,0,0,1-.39-.11,2.678,2.678,0,0,1-.24-.12,3.116,3.116,0,0,1,.08-.44.409.409,0,0,0,.01-.11c.11-.23.22-.46.32-.69C-310.77-4413.23-310.66-4413.17-310.56-4413.11Zm-30.81-7.45c2.08-7.47,7.32-15.15,15.38-16.41a1.178,1.178,0,0,0,1.54.62c.02-.01.05-.02.07-.03a9.048,9.048,0,0,1,9.27,1.65c2.93,2.47,4.1,6.38,4.09,10.11a22.786,22.786,0,0,1-1.95,8.71,1.316,1.316,0,0,0-.27.64c-.37.84-.77,1.66-1.19,2.47-1.16,2.22-2.43,4.43-3.82,6.55-.3.1-.3.1-.72-.15-.51-.32-.93-.87-1.45-1.2a7.146,7.146,0,0,0-2.12-.92c-1.5-.37-3.01-.07-4.53-.22a26.662,26.662,0,0,1-4.5-.87,1.294,1.294,0,0,0,.73-.4,1.509,1.509,0,0,0,0-2.12l-.38-.34a38.305,38.305,0,0,0,4.15-7.79,1.489,1.489,0,0,0-1.04-1.84,1.663,1.663,0,0,0-.38-.05,1.539,1.539,0,0,0-1.47,1.09c-.26.67-.54,1.3-.88,2.02-.34.7-.69,1.39-1.07,2.07a39.861,39.861,0,0,1-2.58,3.99,1.5,1.5,0,0,0,.23,1.82l1.26,1.12a36.754,36.754,0,0,1-4.82-1.99,14.7,14.7,0,0,0-4.91-1.7A50.951,50.951,0,0,1-341.37-4420.56Zm26.89,23.15a31.686,31.686,0,0,0,.35-4.86c.51,3.07,1.3,6.13,1.97,9.2a19.277,19.277,0,0,0-3.52-.8A5.948,5.948,0,0,0-314.48-4397.41Zm-.57-8.3c.14-.25.3-.49.45-.73.03.56.08,1.11.14,1.67A3.05,3.05,0,0,0-315.05-4405.71Zm-30.35-13.72c-.02-.03-.14-.15-.21-.23l-.06-.09c-.05-.08-.09-.16-.13-.24-.01-.04-.03-.08-.04-.12s-.02-.1-.03-.16a2.171,2.171,0,0,1,0-.51c.02-.11.04-.22.07-.33l.01-.03.12-.21a.364.364,0,0,1,.07-.1,5.9,5.9,0,0,1,1.03-.01,2.552,2.552,0,0,1,.27.06l.05.03c-.22.76-.41,1.52-.58,2.28l-.06-.02a.115.115,0,0,0-.03-.02c-.06-.03-.12-.06-.17-.09-.08-.04-.16-.1-.24-.15A.436.436,0,0,0-345.4-4419.43Zm-66.66,83.5c-1.84.44-3.71,1-5.58,1.27a8.8,8.8,0,0,1-3.03-.07,1.336,1.336,0,0,0-1.04-.56,10.753,10.753,0,0,1-1.86-4.03,16.827,16.827,0,0,1-.62-4.04c6.73-4.72,14.73-7.05,21.93-10.9,4.06-2.17,7.61-5.11,11.54-7.48,3.8-2.29,7.73-4.33,11.55-6.58,2-1.18,3.91-2.49,5.83-3.8a21.7,21.7,0,0,0,1.81,4.51c.93,1.9,1.8,3.83,2.54,5.82a59.709,59.709,0,0,1,3.07,12.07C-381.17-4344.69-396.41-4339.64-412.06-4335.93Zm116.72-28.4c-.27-1.27-.55-2.54-.87-3.8-.47-1.87-3.37-1.08-2.89.8,5,19.79,3.26,40.38.03,60.3-.43,2.63-.89,5.27-1.35,7.9-5.61-5.1-13.69-6.39-20.31-9.71a1.465,1.465,0,0,0-1.79.32c-12.8-2.02-25.45,2.34-36.94,7.69a139.522,139.522,0,0,1,3.81-48.58,1.413,1.413,0,0,0,.04-.54q5.745-1.875,11.52-3.68,2.8-.855,5.62-1.7c1.84-.54,1.06-3.44-.8-2.89-7.98,2.37-15.88,4.95-23.78,7.55a60.455,60.455,0,0,0-3.05-11.92c-.73-1.97-1.55-3.89-2.47-5.78a21.959,21.959,0,0,1-2.12-5.53c.93-.6,1.87-1.19,2.83-1.74,3.68-2.12,7.43-4.12,11.27-5.94a104.419,104.419,0,0,1,18.73-6.76c.49.04.98.1,1.5.13a29.842,29.842,0,0,0,5.43-.13c2.77-.32,5.8-.76,7.96-2.64,1.15-.09,2.31-.15,3.45-.16a17.968,17.968,0,0,1,8.05,1.58c.01.08.03.15.04.22a1.284,1.284,0,0,0,1.45,1.1,1.188,1.188,0,0,0,.45-.15,11.1,11.1,0,0,1,1.43,1.22,1.5,1.5,0,0,0,2.12-2.12c-.18-.18-.36-.35-.55-.52a56.961,56.961,0,0,0,19.73-3.98c.63,3.04,2.37,5.73,3.36,8.67a34.015,34.015,0,0,1,1.77,10.34,1.348,1.348,0,0,0,.11.55Q-288.22-4368.965-295.34-4364.33Zm-29.54-49.95a1.535,1.535,0,0,0,1.06.44,1.523,1.523,0,0,0,1.07-.44,7.17,7.17,0,0,0,.82-1.16,6.4,6.4,0,0,0,.54-1.33,1.217,1.217,0,0,0,.03-.6,1.059,1.059,0,0,0-.18-.55,1.153,1.153,0,0,0-.39-.43,1.082,1.082,0,0,0-.51-.26,1.449,1.449,0,0,0-1.15.15,1.523,1.523,0,0,0-.69.9c-.04.12-.09.25-.13.37a5.4,5.4,0,0,1-.48.81,1.148,1.148,0,0,0-.3.46,1.294,1.294,0,0,0-.13.58,1.3,1.3,0,0,0,.13.58A1.176,1.176,0,0,0-324.88-4414.28Zm-12.51-4.62a1.213,1.213,0,0,0,.42.39,1.564,1.564,0,0,0,1.16.15,1.486,1.486,0,0,0,.9-.69l.85-1.8a1.124,1.124,0,0,0,.18-.56,1.021,1.021,0,0,0-.03-.6,1.014,1.014,0,0,0-.27-.51,1.057,1.057,0,0,0-.42-.39,1.539,1.539,0,0,0-1.15-.15,1.459,1.459,0,0,0-.9.69l-.86,1.8a1.221,1.221,0,0,0-.17.56,1.109,1.109,0,0,0,.02.6A1.2,1.2,0,0,0-337.39-4418.9Zm3.48-3.11a1.014,1.014,0,0,0-.27-.51,1.057,1.057,0,0,0-.42-.39,1.539,1.539,0,0,0-1.15-.15,1.459,1.459,0,0,0-.9.69l-.86,1.8a1.221,1.221,0,0,0-.17.56,1.109,1.109,0,0,0,.02.6,1.2,1.2,0,0,0,.27.51,1.213,1.213,0,0,0,.42.39,1.564,1.564,0,0,0,1.16.15,1.486,1.486,0,0,0,.9-.69l.85-1.8a1.124,1.124,0,0,0,.18-.56A1.021,1.021,0,0,0-333.91-4422.01Zm12.55,4.64a1.059,1.059,0,0,0-.18-.55,1.153,1.153,0,0,0-.39-.43,1.082,1.082,0,0,0-.51-.26,1.449,1.449,0,0,0-1.15.15,1.523,1.523,0,0,0-.69.9c-.04.12-.09.25-.13.37a5.4,5.4,0,0,1-.48.81,1.148,1.148,0,0,0-.3.46,1.294,1.294,0,0,0-.13.58,1.3,1.3,0,0,0,.13.58,1.176,1.176,0,0,0,.31.48,1.535,1.535,0,0,0,1.06.44,1.523,1.523,0,0,0,1.07-.44,7.17,7.17,0,0,0,.82-1.16,6.4,6.4,0,0,0,.54-1.33A1.217,1.217,0,0,0-321.36-4417.37Zm0,0a1.059,1.059,0,0,0-.18-.55,1.153,1.153,0,0,0-.39-.43,1.082,1.082,0,0,0-.51-.26,1.449,1.449,0,0,0-1.15.15,1.523,1.523,0,0,0-.69.9c-.04.12-.09.25-.13.37a5.4,5.4,0,0,1-.48.81,1.148,1.148,0,0,0-.3.46,1.294,1.294,0,0,0-.13.58,1.3,1.3,0,0,0,.13.58,1.176,1.176,0,0,0,.31.48,1.535,1.535,0,0,0,1.06.44,1.523,1.523,0,0,0,1.07-.44,7.17,7.17,0,0,0,.82-1.16,6.4,6.4,0,0,0,.54-1.33A1.217,1.217,0,0,0-321.36-4417.37Zm-12.55-4.64a1.014,1.014,0,0,0-.27-.51,1.057,1.057,0,0,0-.42-.39,1.539,1.539,0,0,0-1.15-.15,1.459,1.459,0,0,0-.9.69l-.86,1.8a1.221,1.221,0,0,0-.17.56,1.109,1.109,0,0,0,.02.6,1.2,1.2,0,0,0,.27.51,1.213,1.213,0,0,0,.42.39,1.564,1.564,0,0,0,1.16.15,1.486,1.486,0,0,0,.9-.69l.85-1.8a1.124,1.124,0,0,0,.18-.56A1.021,1.021,0,0,0-333.91-4422.01Zm0,0a1.014,1.014,0,0,0-.27-.51,1.057,1.057,0,0,0-.42-.39,1.539,1.539,0,0,0-1.15-.15,1.459,1.459,0,0,0-.9.69l-.86,1.8a1.221,1.221,0,0,0-.17.56,1.109,1.109,0,0,0,.02.6,1.2,1.2,0,0,0,.27.51,1.213,1.213,0,0,0,.42.39,1.564,1.564,0,0,0,1.16.15,1.486,1.486,0,0,0,.9-.69l.85-1.8a1.124,1.124,0,0,0,.18-.56A1.021,1.021,0,0,0-333.91-4422.01Zm12.55,4.64a1.059,1.059,0,0,0-.18-.55,1.153,1.153,0,0,0-.39-.43,1.082,1.082,0,0,0-.51-.26,1.449,1.449,0,0,0-1.15.15,1.523,1.523,0,0,0-.69.9c-.04.12-.09.25-.13.37a5.4,5.4,0,0,1-.48.81,1.148,1.148,0,0,0-.3.46,1.294,1.294,0,0,0-.13.58,1.3,1.3,0,0,0,.13.58,1.176,1.176,0,0,0,.31.48,1.535,1.535,0,0,0,1.06.44,1.523,1.523,0,0,0,1.07-.44,7.17,7.17,0,0,0,.82-1.16,6.4,6.4,0,0,0,.54-1.33A1.217,1.217,0,0,0-321.36-4417.37Zm0,0a1.059,1.059,0,0,0-.18-.55,1.153,1.153,0,0,0-.39-.43,1.082,1.082,0,0,0-.51-.26,1.449,1.449,0,0,0-1.15.15,1.523,1.523,0,0,0-.69.9c-.04.12-.09.25-.13.37a5.4,5.4,0,0,1-.48.81,1.148,1.148,0,0,0-.3.46,1.294,1.294,0,0,0-.13.58,1.3,1.3,0,0,0,.13.58,1.176,1.176,0,0,0,.31.48,1.535,1.535,0,0,0,1.06.44,1.523,1.523,0,0,0,1.07-.44,7.17,7.17,0,0,0,.82-1.16,6.4,6.4,0,0,0,.54-1.33A1.217,1.217,0,0,0-321.36-4417.37Zm-12.55-4.64a1.014,1.014,0,0,0-.27-.51,1.057,1.057,0,0,0-.42-.39,1.539,1.539,0,0,0-1.15-.15,1.459,1.459,0,0,0-.9.69l-.86,1.8a1.221,1.221,0,0,0-.17.56,1.109,1.109,0,0,0,.02.6,1.2,1.2,0,0,0,.27.51,1.213,1.213,0,0,0,.42.39,1.564,1.564,0,0,0,1.16.15,1.486,1.486,0,0,0,.9-.69l.85-1.8a1.124,1.124,0,0,0,.18-.56A1.021,1.021,0,0,0-333.91-4422.01Zm94.15-30.01a1.5,1.5,0,0,0-1.84-1.05,1.551,1.551,0,0,0-1.09,1.48,1.474,1.474,0,0,0,.04.36c.09.56.15,1.05.2,1.77q.075,1,.06,2.01a20.682,20.682,0,0,1-.38,3.77,1.539,1.539,0,0,0,1.05,1.85,1.519,1.519,0,0,0,1.84-1.05A25.991,25.991,0,0,0-239.76-4452.02Zm-6.12-2.22a1.535,1.535,0,0,0-1.85-1.05,1.52,1.52,0,0,0-1.04,1.85,25.761,25.761,0,0,1,1,4.05c0,.05.05.34.05.37.02.14.04.27.05.41q.06.51.09,1.02c.05.71.06,1.42.05,2.13a1.511,1.511,0,0,0,1.5,1.5,1.531,1.531,0,0,0,1.5-1.5A26.2,26.2,0,0,0-245.88-4454.24Zm-3.06,8.36a45.473,45.473,0,0,1-1.98-11.04,1.538,1.538,0,0,0-1.5-1.5,1.511,1.511,0,0,0-1.5,1.5,48.631,48.631,0,0,0,2.09,11.84,1.524,1.524,0,0,0,1.84,1.05A1.526,1.526,0,0,0-248.94-4445.88Zm-138.71,32.4a1.541,1.541,0,0,0-2.13,0c-.57.55-1.17,1.09-1.79,1.59-.09.08-.18.15-.27.23l-.13.1-.13.1-.22.16c-.34.25-.69.5-1.04.73a28.148,28.148,0,0,1-4.28,2.33,1.509,1.509,0,0,0-.53,2.06,1.537,1.537,0,0,0,2.05.53,28.6,28.6,0,0,0,8.47-5.71A1.528,1.528,0,0,0-387.65-4413.48Zm-1.85-8.17a1.5,1.5,0,0,0-2.05.54,30.416,30.416,0,0,1-9.64,9.97,1.528,1.528,0,0,0-.54,2.05,1.533,1.533,0,0,0,2.05.54,33.664,33.664,0,0,0,10.72-11.04A1.5,1.5,0,0,0-389.5-4421.65Zm-5.73.44a1.514,1.514,0,0,0-2.05.54,16.04,16.04,0,0,1-1.34,2.3c-.06.08-.11.16-.17.23-.02.03-.12.16-.15.2l-.08.1c-.07.09-.14.18-.22.27-.29.34-.59.66-.9.98-.31.3-.62.58-.95.86-.09.07-.17.15-.27.22l-.05.04c-.17.14-.35.26-.52.39a15.609,15.609,0,0,1-2.32,1.32,1.521,1.521,0,0,0-.54,2.06,1.551,1.551,0,0,0,2.06.53,16.9,16.9,0,0,0,8.04-7.99A1.53,1.53,0,0,0-395.23-4421.21Zm-83.52-1.32a1.51,1.51,0,0,0-.38-.66l-1.4-1.58a1.132,1.132,0,0,0-.49-.32,1.16,1.16,0,0,0-.58-.12,1.1,1.1,0,0,0-.57.12,1.132,1.132,0,0,0-.49.32,1.542,1.542,0,0,0-.44,1.06l.06.4a1.567,1.567,0,0,0,.38.66c.47.53.94,1.05,1.4,1.58a1.111,1.111,0,0,0,.49.31,1.027,1.027,0,0,0,.57.13,1.041,1.041,0,0,0,.58-.13,1.111,1.111,0,0,0,.49-.31,1.49,1.49,0,0,0,.43-1.06Zm6.73,7.45a1.533,1.533,0,0,0-2.05-.54c-.24.13-.48.25-.73.37-.12.06-.25.11-.37.17l-.13.06a10.055,10.055,0,0,1-1.5.48c-.1.02-.2.04-.31.06l-.11.01c-.13.01-.26.01-.39.01a2,2,0,0,0-.35-.02l-.08-.02c-.12-.03-.24-.07-.35-.1-.03-.01-.06-.03-.09-.04-.11-.06-.22-.13-.33-.2a1.508,1.508,0,0,0-2.05.53,1.545,1.545,0,0,0,.54,2.06c2.42,1.63,5.45.43,7.76-.78A1.51,1.51,0,0,0-472.02-4415.08Zm1.39-8.33a1.434,1.434,0,0,0-.39-.66l-3.21-4.04a1.5,1.5,0,0,0-1.06-.44,1.54,1.54,0,0,0-1.06.44,1.5,1.5,0,0,0-.44,1.06l.05.4a1.525,1.525,0,0,0,.39.66l3.21,4.04a1.5,1.5,0,0,0,1.06.44,1.5,1.5,0,0,0,1.06-.44,1.5,1.5,0,0,0,.44-1.06Zm-8.83-9.47a1.52,1.52,0,0,0-1.84-1.05,12.769,12.769,0,0,0-4.88,2.87,1.509,1.509,0,0,0,0,2.12,1.547,1.547,0,0,0,2.12,0c.21-.2.43-.38.65-.56a11.2,11.2,0,0,1,2.17-1.27c.24-.09.48-.19.73-.27a1.577,1.577,0,0,0,.9-.68A1.569,1.569,0,0,0-479.46-4432.88Zm32.28,99.77a24.708,24.708,0,0,1-13.41-2.86c-1.7-.91-3.22,1.68-1.51,2.6a27.758,27.758,0,0,0,14.92,3.26,1.531,1.531,0,0,0,1.5-1.5A1.524,1.524,0,0,0-447.18-4333.11Zm-1.83-10.33a1.541,1.541,0,0,0-1.85-1.04l-.09.01-.28.03c-.16.02-.31.03-.47.04-.36.03-.72.05-1.08.05a15.047,15.047,0,0,1-2.02-.1s-.25-.03-.29-.03c-.16-.03-.31-.05-.47-.08-.33-.06-.66-.12-.99-.2a17.277,17.277,0,0,1-2.08-.65,1.5,1.5,0,0,0-1.84,1.05,1.542,1.542,0,0,0,1.04,1.85,18.808,18.808,0,0,0,9.37.92A1.514,1.514,0,0,0-449.01-4343.44Zm17.21,10.28a1.508,1.508,0,0,0-1.84-1.05,37.49,37.49,0,0,1-9.58,2.1,1.531,1.531,0,0,0-1.5,1.5,1.525,1.525,0,0,0,1.5,1.5,39.982,39.982,0,0,0,10.37-2.21A1.534,1.534,0,0,0-431.8-4333.16Zm-2.7-3.74a1.546,1.546,0,0,0-1.84-1.05l-8.92,1.65a1.518,1.518,0,0,0-1.05,1.85,1.557,1.557,0,0,0,1.85,1.05l8.92-1.65A1.512,1.512,0,0,0-434.5-4336.9Zm-.66-4.68a1.5,1.5,0,0,0-1.84-1.04,35.693,35.693,0,0,1-12.82,2.57,1.5,1.5,0,0,0-1.5,1.5,1.5,1.5,0,0,0,1.5,1.5,38,38,0,0,0,13.61-2.68A1.539,1.539,0,0,0-435.16-4341.58Zm165.65,154.95c-1.88-1.52-3.79-3.01-5.68-4.52-.79-.63-1.61-1.46-2.7-1.47-1.11,0-2,.86-2.83,1.47l-6.57,4.78a1.557,1.557,0,0,0-1.86,1.18,1.539,1.539,0,0,0,.34,1.35l1.46,1.65.29.33c.34.31.42.41.22.28-.01-.12-.18.21-.28.41-.06.12-.1.21-.1.21a15.263,15.263,0,0,1-1.91,2.98c-.15.17-.3.35-.46.51a15.246,15.246,0,0,1-2.87,2.45,15.484,15.484,0,0,1-2.47,1.34,1.468,1.468,0,0,0-.7,1,1.547,1.547,0,0,0,.19,1.08,1.4,1.4,0,0,0,.21.27,8.644,8.644,0,0,0,.93.89l1.07.25a1.491,1.491,0,0,1,1.01,1,.424.424,0,0,1,.02.11,9.759,9.759,0,0,0,6.86.57,12.924,12.924,0,0,0,3.54-1.72c1.98-1.32,3.72-3.04,5.56-4.53.1-.09.2-.17.3-.25.6-.45,1.22-.88,1.84-1.29,1.14-.78,2.31-1.49,3.5-2.15a1.359,1.359,0,0,0,.16-.1,6.125,6.125,0,0,0,3.1-3.5C-266.89-4183.97-268.1-4185.49-269.51-4186.63Zm-177.98-7.23c-.86-.75-1.78-1.46-2.59-2.21a11.313,11.313,0,0,1-3.47-6.6,10.463,10.463,0,0,1-.13-2.17,1.5,1.5,0,0,0-1.52-1.5,1.663,1.663,0,0,0-.38.05,28.477,28.477,0,0,1-10.43,1.1,1.33,1.33,0,0,0-.92.25,1.3,1.3,0,0,0-1.57.69,46.252,46.252,0,0,0-2.2,4.74c-.05.13-.11.26-.16.4-.53,1.3-1.09,2.73-.38,4.05a6.251,6.251,0,0,0,.43.7,10.108,10.108,0,0,0,2.66,2.5,17.778,17.778,0,0,0,2.66,1.52c.32.14.63.28.93.41a36.649,36.649,0,0,0,8.23,2.2q2.7.465,5.43.84c1.71.24,3.43.46,5.15.66.85.1,1.44-.77,1.5-1.5a4.055,4.055,0,0,0,.01-.6C-444.27-4190.75-445.77-4192.39-447.49-4193.86Zm-23.14-229.55a1.434,1.434,0,0,0-.39-.66l-3.21-4.04a1.5,1.5,0,0,0-1.06-.44,1.54,1.54,0,0,0-1.06.44,1.5,1.5,0,0,0-.44,1.06l.05.4a1.525,1.525,0,0,0,.39.66l3.21,4.04a1.5,1.5,0,0,0,1.06.44,1.5,1.5,0,0,0,1.06-.44,1.5,1.5,0,0,0,.44-1.06Zm-1.39,8.33a1.533,1.533,0,0,0-2.05-.54c-.24.13-.48.25-.73.37-.12.06-.25.11-.37.17l-.13.06a10.055,10.055,0,0,1-1.5.48c-.1.02-.2.04-.31.06l-.11.01c-.13.01-.26.01-.39.01a2,2,0,0,0-.35-.02l-.08-.02c-.12-.03-.24-.07-.35-.1-.03-.01-.06-.03-.09-.04-.11-.06-.22-.13-.33-.2a1.508,1.508,0,0,0-2.05.53,1.545,1.545,0,0,0,.54,2.06c2.42,1.63,5.45.43,7.76-.78A1.51,1.51,0,0,0-472.02-4415.08Zm-6.73-7.45a1.51,1.51,0,0,0-.38-.66l-1.4-1.58a1.132,1.132,0,0,0-.49-.32,1.16,1.16,0,0,0-.58-.12,1.1,1.1,0,0,0-.57.12,1.132,1.132,0,0,0-.49.32,1.542,1.542,0,0,0-.44,1.06l.06.4a1.567,1.567,0,0,0,.38.66c.47.53.94,1.05,1.4,1.58a1.111,1.111,0,0,0,.49.31,1.027,1.027,0,0,0,.57.13,1.041,1.041,0,0,0,.58-.13,1.111,1.111,0,0,0,.49-.31,1.49,1.49,0,0,0,.43-1.06Zm-.71-10.35a1.52,1.52,0,0,0-1.84-1.05,12.769,12.769,0,0,0-4.88,2.87,1.509,1.509,0,0,0,0,2.12,1.547,1.547,0,0,0,2.12,0c.21-.2.43-.38.65-.56a11.2,11.2,0,0,1,2.17-1.27c.24-.09.48-.19.73-.27a1.577,1.577,0,0,0,.9-.68A1.569,1.569,0,0,0-479.46-4432.88Zm0,0a1.52,1.52,0,0,0-1.84-1.05,12.769,12.769,0,0,0-4.88,2.87,1.509,1.509,0,0,0,0,2.12,1.547,1.547,0,0,0,2.12,0c.21-.2.43-.38.65-.56a11.2,11.2,0,0,1,2.17-1.27c.24-.09.48-.19.73-.27a1.577,1.577,0,0,0,.9-.68A1.569,1.569,0,0,0-479.46-4432.88Zm.71,10.35a1.51,1.51,0,0,0-.38-.66l-1.4-1.58a1.132,1.132,0,0,0-.49-.32,1.16,1.16,0,0,0-.58-.12,1.1,1.1,0,0,0-.57.12,1.132,1.132,0,0,0-.49.32,1.542,1.542,0,0,0-.44,1.06l.06.4a1.567,1.567,0,0,0,.38.66c.47.53.94,1.05,1.4,1.58a1.111,1.111,0,0,0,.49.31,1.027,1.027,0,0,0,.57.13,1.041,1.041,0,0,0,.58-.13,1.111,1.111,0,0,0,.49-.31,1.49,1.49,0,0,0,.43-1.06Zm6.73,7.45a1.533,1.533,0,0,0-2.05-.54c-.24.13-.48.25-.73.37-.12.06-.25.11-.37.17l-.13.06a10.055,10.055,0,0,1-1.5.48c-.1.02-.2.04-.31.06l-.11.01c-.13.01-.26.01-.39.01a2,2,0,0,0-.35-.02l-.08-.02c-.12-.03-.24-.07-.35-.1-.03-.01-.06-.03-.09-.04-.11-.06-.22-.13-.33-.2a1.508,1.508,0,0,0-2.05.53,1.545,1.545,0,0,0,.54,2.06c2.42,1.63,5.45.43,7.76-.78A1.51,1.51,0,0,0-472.02-4415.08Zm1.39-8.33a1.434,1.434,0,0,0-.39-.66l-3.21-4.04a1.5,1.5,0,0,0-1.06-.44,1.54,1.54,0,0,0-1.06.44,1.5,1.5,0,0,0-.44,1.06l.05.4a1.525,1.525,0,0,0,.39.66l3.21,4.04a1.5,1.5,0,0,0,1.06.44,1.5,1.5,0,0,0,1.06-.44,1.5,1.5,0,0,0,.44-1.06Zm0,0a1.434,1.434,0,0,0-.39-.66l-3.21-4.04a1.5,1.5,0,0,0-1.06-.44,1.54,1.54,0,0,0-1.06.44,1.5,1.5,0,0,0-.44,1.06l.05.4a1.525,1.525,0,0,0,.39.66l3.21,4.04a1.5,1.5,0,0,0,1.06.44,1.5,1.5,0,0,0,1.06-.44,1.5,1.5,0,0,0,.44-1.06Zm-1.39,8.33a1.533,1.533,0,0,0-2.05-.54c-.24.13-.48.25-.73.37-.12.06-.25.11-.37.17l-.13.06a10.055,10.055,0,0,1-1.5.48c-.1.02-.2.04-.31.06l-.11.01c-.13.01-.26.01-.39.01a2,2,0,0,0-.35-.02l-.08-.02c-.12-.03-.24-.07-.35-.1-.03-.01-.06-.03-.09-.04-.11-.06-.22-.13-.33-.2a1.508,1.508,0,0,0-2.05.53,1.545,1.545,0,0,0,.54,2.06c2.42,1.63,5.45.43,7.76-.78A1.51,1.51,0,0,0-472.02-4415.08Zm-6.73-7.45a1.51,1.51,0,0,0-.38-.66l-1.4-1.58a1.132,1.132,0,0,0-.49-.32,1.16,1.16,0,0,0-.58-.12,1.1,1.1,0,0,0-.57.12,1.132,1.132,0,0,0-.49.32,1.542,1.542,0,0,0-.44,1.06l.06.4a1.567,1.567,0,0,0,.38.66c.47.53.94,1.05,1.4,1.58a1.111,1.111,0,0,0,.49.31,1.027,1.027,0,0,0,.57.13,1.041,1.041,0,0,0,.58-.13,1.111,1.111,0,0,0,.49-.31,1.49,1.49,0,0,0,.43-1.06Zm-.71-10.35a1.52,1.52,0,0,0-1.84-1.05,12.769,12.769,0,0,0-4.88,2.87,1.509,1.509,0,0,0,0,2.12,1.547,1.547,0,0,0,2.12,0c.21-.2.43-.38.65-.56a11.2,11.2,0,0,1,2.17-1.27c.24-.09.48-.19.73-.27a1.577,1.577,0,0,0,.9-.68A1.569,1.569,0,0,0-479.46-4432.88Zm0,0a1.52,1.52,0,0,0-1.84-1.05,12.769,12.769,0,0,0-4.88,2.87,1.509,1.509,0,0,0,0,2.12,1.547,1.547,0,0,0,2.12,0c.21-.2.43-.38.65-.56a11.2,11.2,0,0,1,2.17-1.27c.24-.09.48-.19.73-.27a1.577,1.577,0,0,0,.9-.68A1.569,1.569,0,0,0-479.46-4432.88Zm.71,10.35a1.51,1.51,0,0,0-.38-.66l-1.4-1.58a1.132,1.132,0,0,0-.49-.32,1.16,1.16,0,0,0-.58-.12,1.1,1.1,0,0,0-.57.12,1.132,1.132,0,0,0-.49.32,1.542,1.542,0,0,0-.44,1.06l.06.4a1.567,1.567,0,0,0,.38.66c.47.53.94,1.05,1.4,1.58a1.111,1.111,0,0,0,.49.31,1.027,1.027,0,0,0,.57.13,1.041,1.041,0,0,0,.58-.13,1.111,1.111,0,0,0,.49-.31,1.49,1.49,0,0,0,.43-1.06Zm6.73,7.45a1.533,1.533,0,0,0-2.05-.54c-.24.13-.48.25-.73.37-.12.06-.25.11-.37.17l-.13.06a10.055,10.055,0,0,1-1.5.48c-.1.02-.2.04-.31.06l-.11.01c-.13.01-.26.01-.39.01a2,2,0,0,0-.35-.02l-.08-.02c-.12-.03-.24-.07-.35-.1-.03-.01-.06-.03-.09-.04-.11-.06-.22-.13-.33-.2a1.508,1.508,0,0,0-2.05.53,1.545,1.545,0,0,0,.54,2.06c2.42,1.63,5.45.43,7.76-.78A1.51,1.51,0,0,0-472.02-4415.08Zm1.39-8.33a1.434,1.434,0,0,0-.39-.66l-3.21-4.04a1.5,1.5,0,0,0-1.06-.44,1.54,1.54,0,0,0-1.06.44,1.5,1.5,0,0,0-.44,1.06l.05.4a1.525,1.525,0,0,0,.39.66l3.21,4.04a1.5,1.5,0,0,0,1.06.44,1.5,1.5,0,0,0,1.06-.44,1.5,1.5,0,0,0,.44-1.06Zm0,0a1.434,1.434,0,0,0-.39-.66l-3.21-4.04a1.5,1.5,0,0,0-1.06-.44,1.54,1.54,0,0,0-1.06.44,1.5,1.5,0,0,0-.44,1.06l.05.4a1.525,1.525,0,0,0,.39.66l3.21,4.04a1.5,1.5,0,0,0,1.06.44,1.5,1.5,0,0,0,1.06-.44,1.5,1.5,0,0,0,.44-1.06Zm-3.44,7.79c-.24.13-.48.25-.73.37-.12.06-.25.11-.37.17l-.13.06a10.055,10.055,0,0,1-1.5.48c-.1.02-.2.04-.31.06l-.11.01c-.13.01-.26.01-.39.01a2,2,0,0,0-.35-.02l-.08-.02c-.12-.03-.24-.07-.35-.1-.03-.01-.06-.03-.09-.04-.11-.06-.22-.13-.33-.2a1.508,1.508,0,0,0-2.05.53,1.545,1.545,0,0,0,.54,2.06c2.42,1.63,5.45.43,7.76-.78a1.51,1.51,0,0,0,.54-2.05A1.533,1.533,0,0,0-474.07-4415.62Zm-6.13-5.01a1.041,1.041,0,0,0,.58-.13,1.111,1.111,0,0,0,.49-.31,1.49,1.49,0,0,0,.43-1.06l-.05-.4a1.51,1.51,0,0,0-.38-.66l-1.4-1.58a1.132,1.132,0,0,0-.49-.32,1.16,1.16,0,0,0-.58-.12,1.1,1.1,0,0,0-.57.12,1.132,1.132,0,0,0-.49.32,1.542,1.542,0,0,0-.44,1.06l.06.4a1.567,1.567,0,0,0,.38.66c.47.53.94,1.05,1.4,1.58a1.111,1.111,0,0,0,.49.31A1.027,1.027,0,0,0-480.2-4420.63Zm-.31-10.41a1.577,1.577,0,0,0,.9-.68,1.569,1.569,0,0,0,.15-1.16,1.52,1.52,0,0,0-1.84-1.05,12.769,12.769,0,0,0-4.88,2.87,1.509,1.509,0,0,0,0,2.12,1.547,1.547,0,0,0,2.12,0c.21-.2.43-.38.65-.56a11.2,11.2,0,0,1,2.17-1.27C-481-4430.86-480.76-4430.96-480.51-4431.04Zm89.67,24.75a1.509,1.509,0,0,0-2.12,0c-1.7,2.16-4.66,2.4-7.18,2.88a31.067,31.067,0,0,0-6.93,2.2c-.22-.5-.53-.97-.79-1.47-.37-.69-.71-1.39-1.01-2.11-.54-1.3-1.11-2.56-1.77-3.8a7.42,7.42,0,0,1,.94-1.23,24.309,24.309,0,0,1,2.77-2.4c2.03-1.58,3.98-3.31,4.79-5.84a1.515,1.515,0,0,0-1.05-1.84,1.51,1.51,0,0,0-1.84,1.04,6.525,6.525,0,0,1-1.74,2.59,33.282,33.282,0,0,1-2.81,2.35,13.746,13.746,0,0,0-3.86,4.21,85.815,85.815,0,0,1-51.05,15.84,81.981,81.981,0,0,1-14.9-1.61c-1.07-2.2-2.13-4.4-3.2-6.6a13.846,13.846,0,0,0,9.95-2.55c8-5.76,8.45-17.99,6.85-26.81a25.623,25.623,0,0,0-2.75-7.98,10.188,10.188,0,0,0,3.36-8.03,9.485,9.485,0,0,0-2.23-5.72,9.449,9.449,0,0,0-6.1-2.88c-2.46-.32-5.02-.08-7.42-.82-2.52-.79-4.7-2.48-7.47-2.33-2.67.15-4.95,1.78-7.6,2.05-2.37.25-4.8.37-6.49,2.3-1.53,1.77-1.79,4.14-2.47,6.29-.78,2.47-2.28,4.69-2.84,7.23a8.946,8.946,0,0,0-.08,3.75c.25,1.31.91,2.49,1.2,3.78.6,2.66-1.02,5.33-.79,8.04a15.8,15.8,0,0,0,2.91,7.3,17.72,17.72,0,0,0,2.12,2.83,23.359,23.359,0,0,1-1.19,3.75,18.18,18.18,0,0,1-5.04,6.94l-6.14.15a60.307,60.307,0,0,0-7.24.35c-4.3.62-7,3.57-8.53,7.47-1.71,4.35-2.36,9.24-3.05,13.83-.76,5.13-1.27,10.28-1.6,15.46-.67,10.49-.72,21.01-.9,31.52-.04,2.64-.09,5.27-.13,7.91-.04,2.2-.49,4.86.82,6.78a6.58,6.58,0,0,0,.46.59,37.023,37.023,0,0,0-5.48,12.72c-1.1,4.91-1.75,11,.64,15.63a17.834,17.834,0,0,0,5.34,5.63c2.19,1.7,4.43,3.34,6.73,4.9.09.07.19.13.28.19q-3.375,27.225-8.38,54.22-2.115,11.34-4.5,22.6a1.478,1.478,0,0,0,.54,1.57q5.64-.975,11.27-1.99c.37-.2.73-.41,1.09-.64a23.454,23.454,0,0,0,7.88-9.36,168.632,168.632,0,0,0,10.08-25.78c2.85-8.94,5.28-18.01,7.76-27.05,1.21.48,2.42.94,3.64,1.4,2.41.9,4.59,1.97,5.85,4.32,1.2,2.25,1.59,4.9,2.23,7.35,2.95,11.19,7.69,21.82,12.91,32.12,1.28,2.51,2.58,5,3.9,7.49.23.44.47.88.7,1.32.26.48.51.96.77,1.44.51.94,1.02,1.88,1.52,2.83q.315.675.69,1.32a14.843,14.843,0,0,0,.89,1.34,1.468,1.468,0,0,0,1.67,1.23c.05-.01.1-.02.16-.03l.23-.06a14.187,14.187,0,0,0,3.26-.07,44.293,44.293,0,0,0,4.46-.35,5.493,5.493,0,0,0,3.17-1.75,1.48,1.48,0,0,0,1.31-1.65,1.57,1.57,0,0,0-.04-.21c-.12-.41-.24-.81-.36-1.22-.43-1.44-.85-2.89-1.28-4.33-.28-.98-.57-1.95-.86-2.93-3.62-12.35-7.14-24.74-10.09-37.27-1.69-7.2-2.8-14.81-6.65-21.26-3.66-6.13-9.16-10.97-14.21-15.92l-11.11-10.9a8.155,8.155,0,0,0,1.08-.95,1.177,1.177,0,0,0,.55-.53l.17-.36a7.7,7.7,0,0,0,1.16-2.54,1.527,1.527,0,0,0-.3-1.32c.05-.17.09-.33.14-.5.12-.05.25-.11.37-.17a7.053,7.053,0,0,0,3.08-4.24c.74-2.11,1.39-4.26,2.05-6.4q2-6.5,3.76-13.04c.59-2.19,1.15-4.38,1.7-6.58.12-.48.31-1.02.47-1.57,5.53,2.4,11.12,4.68,16.69,6.95a1.508,1.508,0,0,0,1.7-.69,55.474,55.474,0,0,0,5.43-9.88,15.119,15.119,0,0,0,3.86.13c2.75-.24,5.89-1.06,8.44.38a1.5,1.5,0,0,0,1.52-2.59c-2.7-1.52-5.74-1.27-8.7-.93-2.31.27-5.28.65-7.2-1a1.413,1.413,0,0,0-.9-.38q-6.705-3.945-13.21-8.25c.62-1.09,1.21-2.2,1.76-3.33.45-.91-.06-2.38-1.3-2.25h-.07c.1-.37.18-.74.27-1.04.17-.63.47-1.38.58-1.94l.46-.05c.82-.1,1.65-.21,2.47-.33a113.52,113.52,0,0,0,17.68-3.88,125.391,125.391,0,0,0,32.03-15.32q4.185-2.76,8.19-5.78c1.38-1.03,2.74-2.09,4.09-3.16.58-.46,1.28-.94,1.94-1.45a1.486,1.486,0,0,0,.68-.2,30.344,30.344,0,0,1,9.72-3.44c2.81-.51,5.9-1.14,7.77-3.51A1.548,1.548,0,0,0-390.84-4406.29Zm-116.61,93.94a1.352,1.352,0,0,0-1.28-.37,13.256,13.256,0,0,0,1.71-2.17C-507.17-4314.04-507.31-4313.21-507.45-4312.35Zm17.8-102.31a1.51,1.51,0,0,0-1.85-1.05,1.505,1.505,0,0,0-1.05,1.85c1.09,3.98,2.61,8.17,6.18,10.38a16.542,16.542,0,0,0-.91,11.44c.06.2.14.41.22.63-.43,1.85-.91,3.7-1.41,5.53a97.161,97.161,0,0,0-16.07-18.97,23.673,23.673,0,0,0,4.8-9.43,4.667,4.667,0,0,0,.74.06,10.923,10.923,0,0,1,2.49-.05,7.56,7.56,0,0,0,2,.3,3.037,3.037,0,0,0,2.56-2.01c.91-2.45-.62-4.33-2.09-6.1-.73-.88-1.3-1.96-.33-2.92.9-.9,2.33-.32,3.32-1.22,1.01-.92,1.03-2.33,1.5-3.52a8.354,8.354,0,0,1,2.44-3.26,1.368,1.368,0,0,0,.42-.59,1.162,1.162,0,0,0,.2-.25c1.45-2.26,4.66-1.96,6.97-1.91a17.084,17.084,0,0,0,7.31-1.27c.42-.18.82-.39,1.22-.61.06.11.13.22.19.33.27.53.51,1.07.73,1.61l-.85-.35a1.118,1.118,0,0,0-.6-.02,1.093,1.093,0,0,0-.56.18,1.484,1.484,0,0,0-.69.9,1.493,1.493,0,0,0,.15,1.15l.23.3a1.466,1.466,0,0,0,.67.39l2.32.95a1.206,1.206,0,0,0,.42.04,26.628,26.628,0,0,1,.5,2.81.911.911,0,0,0-.23-.25,1.013,1.013,0,0,0-.51-.27,1.107,1.107,0,0,0-.6-.03,1.129,1.129,0,0,0-.56.18l-.3.23a1.567,1.567,0,0,0-.38.66l-.06.4a1.54,1.54,0,0,0,.2.76l.99,1.32a1.126,1.126,0,0,0,.39.42,1.013,1.013,0,0,0,.51.27,1.216,1.216,0,0,0,.6.03,1.007,1.007,0,0,0,.25-.05c.01.15.02.29.02.43.13,4.55-.23,9.42-2.35,13.53-2.07,3.99-6,6.9-10.63,6.75C-486.54-4405.13-488.44-4410.2-489.65-4414.66Zm13.3-11.33,3.21,4.04a1.5,1.5,0,0,0,1.06.44,1.5,1.5,0,0,0,1.06-.44,1.5,1.5,0,0,0,.44-1.06l-.05-.4a1.434,1.434,0,0,0-.39-.66l-3.21-4.04a1.5,1.5,0,0,0-1.06-.44,1.54,1.54,0,0,0-1.06.44,1.5,1.5,0,0,0-.44,1.06l.05.4A1.525,1.525,0,0,0-476.35-4425.99Zm-4.51,11.68a1.545,1.545,0,0,0,.54,2.06c2.42,1.63,5.45.43,7.76-.78a1.51,1.51,0,0,0,.54-2.05,1.533,1.533,0,0,0-2.05-.54c-.24.13-.48.25-.73.37-.12.06-.25.11-.37.17l-.13.06a10.055,10.055,0,0,1-1.5.48c-.1.02-.2.04-.31.06l-.11.01c-.13.01-.26.01-.39.01a2,2,0,0,0-.35-.02l-.08-.02c-.12-.03-.24-.07-.35-.1-.03-.01-.06-.03-.09-.04-.11-.06-.22-.13-.33-.2A1.508,1.508,0,0,0-480.86-4414.31Zm.66-6.32a1.041,1.041,0,0,0,.58-.13,1.111,1.111,0,0,0,.49-.31,1.49,1.49,0,0,0,.43-1.06l-.05-.4a1.51,1.51,0,0,0-.38-.66l-1.4-1.58a1.132,1.132,0,0,0-.49-.32,1.16,1.16,0,0,0-.58-.12,1.1,1.1,0,0,0-.57.12,1.132,1.132,0,0,0-.49.32,1.542,1.542,0,0,0-.44,1.06l.06.4a1.567,1.567,0,0,0,.38.66c.47.53.94,1.05,1.4,1.58a1.111,1.111,0,0,0,.49.31A1.027,1.027,0,0,0-480.2-4420.63Zm-.31-10.41a1.577,1.577,0,0,0,.9-.68,1.569,1.569,0,0,0,.15-1.16,1.52,1.52,0,0,0-1.84-1.05,12.769,12.769,0,0,0-4.88,2.87,1.509,1.509,0,0,0,0,2.12,1.547,1.547,0,0,0,2.12,0c.21-.2.43-.38.65-.56a11.2,11.2,0,0,1,2.17-1.27C-481-4430.86-480.76-4430.96-480.51-4431.04Zm1.05-1.84a1.52,1.52,0,0,0-1.84-1.05,12.769,12.769,0,0,0-4.88,2.87,1.509,1.509,0,0,0,0,2.12,1.547,1.547,0,0,0,2.12,0c.21-.2.43-.38.65-.56a11.2,11.2,0,0,1,2.17-1.27c.24-.09.48-.19.73-.27a1.577,1.577,0,0,0,.9-.68A1.569,1.569,0,0,0-479.46-4432.88Zm.71,10.35a1.51,1.51,0,0,0-.38-.66l-1.4-1.58a1.132,1.132,0,0,0-.49-.32,1.16,1.16,0,0,0-.58-.12,1.1,1.1,0,0,0-.57.12,1.132,1.132,0,0,0-.49.32,1.542,1.542,0,0,0-.44,1.06l.06.4a1.567,1.567,0,0,0,.38.66c.47.53.94,1.05,1.4,1.58a1.111,1.111,0,0,0,.49.31,1.027,1.027,0,0,0,.57.13,1.041,1.041,0,0,0,.58-.13,1.111,1.111,0,0,0,.49-.31,1.49,1.49,0,0,0,.43-1.06Zm6.73,7.45a1.533,1.533,0,0,0-2.05-.54c-.24.13-.48.25-.73.37-.12.06-.25.11-.37.17l-.13.06a10.055,10.055,0,0,1-1.5.48c-.1.02-.2.04-.31.06l-.11.01c-.13.01-.26.01-.39.01a2,2,0,0,0-.35-.02l-.08-.02c-.12-.03-.24-.07-.35-.1-.03-.01-.06-.03-.09-.04-.11-.06-.22-.13-.33-.2a1.508,1.508,0,0,0-2.05.53,1.545,1.545,0,0,0,.54,2.06c2.42,1.63,5.45.43,7.76-.78A1.51,1.51,0,0,0-472.02-4415.08Zm1.39-8.33a1.434,1.434,0,0,0-.39-.66l-3.21-4.04a1.5,1.5,0,0,0-1.06-.44,1.54,1.54,0,0,0-1.06.44,1.5,1.5,0,0,0-.44,1.06l.05.4a1.525,1.525,0,0,0,.39.66l3.21,4.04a1.5,1.5,0,0,0,1.06.44,1.5,1.5,0,0,0,1.06-.44,1.5,1.5,0,0,0,.44-1.06Zm0,0a1.434,1.434,0,0,0-.39-.66l-3.21-4.04a1.5,1.5,0,0,0-1.06-.44,1.54,1.54,0,0,0-1.06.44,1.5,1.5,0,0,0-.44,1.06l.05.4a1.525,1.525,0,0,0,.39.66l3.21,4.04a1.5,1.5,0,0,0,1.06.44,1.5,1.5,0,0,0,1.06-.44,1.5,1.5,0,0,0,.44-1.06Zm-1.39,8.33a1.533,1.533,0,0,0-2.05-.54c-.24.13-.48.25-.73.37-.12.06-.25.11-.37.17l-.13.06a10.055,10.055,0,0,1-1.5.48c-.1.02-.2.04-.31.06l-.11.01c-.13.01-.26.01-.39.01a2,2,0,0,0-.35-.02l-.08-.02c-.12-.03-.24-.07-.35-.1-.03-.01-.06-.03-.09-.04-.11-.06-.22-.13-.33-.2a1.508,1.508,0,0,0-2.05.53,1.545,1.545,0,0,0,.54,2.06c2.42,1.63,5.45.43,7.76-.78A1.51,1.51,0,0,0-472.02-4415.08Zm-6.73-7.45a1.51,1.51,0,0,0-.38-.66l-1.4-1.58a1.132,1.132,0,0,0-.49-.32,1.16,1.16,0,0,0-.58-.12,1.1,1.1,0,0,0-.57.12,1.132,1.132,0,0,0-.49.32,1.542,1.542,0,0,0-.44,1.06l.06.4a1.567,1.567,0,0,0,.38.66c.47.53.94,1.05,1.4,1.58a1.111,1.111,0,0,0,.49.31,1.027,1.027,0,0,0,.57.13,1.041,1.041,0,0,0,.58-.13,1.111,1.111,0,0,0,.49-.31,1.49,1.49,0,0,0,.43-1.06Zm-.71-10.35a1.52,1.52,0,0,0-1.84-1.05,12.769,12.769,0,0,0-4.88,2.87,1.509,1.509,0,0,0,0,2.12,1.547,1.547,0,0,0,2.12,0c.21-.2.43-.38.65-.56a11.2,11.2,0,0,1,2.17-1.27c.24-.09.48-.19.73-.27a1.577,1.577,0,0,0,.9-.68A1.569,1.569,0,0,0-479.46-4432.88Zm0,0a1.52,1.52,0,0,0-1.84-1.05,12.769,12.769,0,0,0-4.88,2.87,1.509,1.509,0,0,0,0,2.12,1.547,1.547,0,0,0,2.12,0c.21-.2.43-.38.65-.56a11.2,11.2,0,0,1,2.17-1.27c.24-.09.48-.19.73-.27a1.577,1.577,0,0,0,.9-.68A1.569,1.569,0,0,0-479.46-4432.88Zm.71,10.35a1.51,1.51,0,0,0-.38-.66l-1.4-1.58a1.132,1.132,0,0,0-.49-.32,1.16,1.16,0,0,0-.58-.12,1.1,1.1,0,0,0-.57.12,1.132,1.132,0,0,0-.49.32,1.542,1.542,0,0,0-.44,1.06l.06.4a1.567,1.567,0,0,0,.38.66c.47.53.94,1.05,1.4,1.58a1.111,1.111,0,0,0,.49.31,1.027,1.027,0,0,0,.57.13,1.041,1.041,0,0,0,.58-.13,1.111,1.111,0,0,0,.49-.31,1.49,1.49,0,0,0,.43-1.06Zm6.73,7.45a1.533,1.533,0,0,0-2.05-.54c-.24.13-.48.25-.73.37-.12.06-.25.11-.37.17l-.13.06a10.055,10.055,0,0,1-1.5.48c-.1.02-.2.04-.31.06l-.11.01c-.13.01-.26.01-.39.01a2,2,0,0,0-.35-.02l-.08-.02c-.12-.03-.24-.07-.35-.1-.03-.01-.06-.03-.09-.04-.11-.06-.22-.13-.33-.2a1.508,1.508,0,0,0-2.05.53,1.545,1.545,0,0,0,.54,2.06c2.42,1.63,5.45.43,7.76-.78A1.51,1.51,0,0,0-472.02-4415.08Zm1.39-8.33a1.434,1.434,0,0,0-.39-.66l-3.21-4.04a1.5,1.5,0,0,0-1.06-.44,1.54,1.54,0,0,0-1.06.44,1.5,1.5,0,0,0-.44,1.06l.05.4a1.525,1.525,0,0,0,.39.66l3.21,4.04a1.5,1.5,0,0,0,1.06.44,1.5,1.5,0,0,0,1.06-.44,1.5,1.5,0,0,0,.44-1.06Zm0,0a1.434,1.434,0,0,0-.39-.66l-3.21-4.04a1.5,1.5,0,0,0-1.06-.44,1.54,1.54,0,0,0-1.06.44,1.5,1.5,0,0,0-.44,1.06l.05.4a1.525,1.525,0,0,0,.39.66l3.21,4.04a1.5,1.5,0,0,0,1.06.44,1.5,1.5,0,0,0,1.06-.44,1.5,1.5,0,0,0,.44-1.06Zm-1.39,8.33a1.533,1.533,0,0,0-2.05-.54c-.24.13-.48.25-.73.37-.12.06-.25.11-.37.17l-.13.06a10.055,10.055,0,0,1-1.5.48c-.1.02-.2.04-.31.06l-.11.01c-.13.01-.26.01-.39.01a2,2,0,0,0-.35-.02l-.08-.02c-.12-.03-.24-.07-.35-.1-.03-.01-.06-.03-.09-.04-.11-.06-.22-.13-.33-.2a1.508,1.508,0,0,0-2.05.53,1.545,1.545,0,0,0,.54,2.06c2.42,1.63,5.45.43,7.76-.78A1.51,1.51,0,0,0-472.02-4415.08Zm-6.73-7.45a1.51,1.51,0,0,0-.38-.66l-1.4-1.58a1.132,1.132,0,0,0-.49-.32,1.16,1.16,0,0,0-.58-.12,1.1,1.1,0,0,0-.57.12,1.132,1.132,0,0,0-.49.32,1.542,1.542,0,0,0-.44,1.06l.06.4a1.567,1.567,0,0,0,.38.66c.47.53.94,1.05,1.4,1.58a1.111,1.111,0,0,0,.49.31,1.027,1.027,0,0,0,.57.13,1.041,1.041,0,0,0,.58-.13,1.111,1.111,0,0,0,.49-.31,1.49,1.49,0,0,0,.43-1.06Zm-.71-10.35a1.52,1.52,0,0,0-1.84-1.05,12.769,12.769,0,0,0-4.88,2.87,1.509,1.509,0,0,0,0,2.12,1.547,1.547,0,0,0,2.12,0c.21-.2.43-.38.65-.56a11.2,11.2,0,0,1,2.17-1.27c.24-.09.48-.19.73-.27a1.577,1.577,0,0,0,.9-.68A1.569,1.569,0,0,0-479.46-4432.88Zm147.54,253.76c-.05-.07-.1-.14-.15-.2a5.581,5.581,0,0,0-4.73-2.16,12.162,12.162,0,0,0-2.78.39,7.133,7.133,0,0,1-4.09.11,1.243,1.243,0,0,0-1.11.07,1.23,1.23,0,0,0-.4-.19,1.49,1.49,0,0,0-1.54.36,1.243,1.243,0,0,0-.18.21,1.566,1.566,0,0,0-.27.81,12.2,12.2,0,0,1-.07,2.18,11.887,11.887,0,0,1-.75,3,10.92,10.92,0,0,1-.67,1.43c-.27.44-.55.87-.84,1.3-.38.57-.77,1.14-1.18,1.7-.65.9-1.31,1.8-1.95,2.71-.16.18-.31.37-.45.56a6.218,6.218,0,0,0-1,2.17,1.6,1.6,0,0,0-.05.21,2.6,2.6,0,0,0,1.53,2.52c.01.01.02.02.03.02a13.484,13.484,0,0,0,6.01,1.1,9.746,9.746,0,0,0,5.7-1.87,20.851,20.851,0,0,0,1.66-1.59,20.114,20.114,0,0,0,1.99-2.6c.11-.15.2-.31.3-.47.95-1.39,1.91-2.78,2.86-4.18.43-.63.86-1.26,1.28-1.89a9.637,9.637,0,0,0,.95-1.76,5.4,5.4,0,0,0,.3-.94A3.9,3.9,0,0,0-331.92-4179.12Z"/><path d="M-223.91-4162.06c-.04-.9-.09-1.79-.13-2.68a1.26,1.26,0,0,0-.08-.43,1.279,1.279,0,0,0-.82-.94.851.851,0,0,0-.17-.07l-.03-.01c-3.14-.86-6.3-1.69-9.46-2.49a1.438,1.438,0,0,0-.72-1.91.9.9,0,0,0-.23-.08l-16.57-3.75c-.86-.2-1.72-.42-2.6-.59a3.928,3.928,0,0,0-1.77.2l-9.32,2.4-7.79,2.01a1.336,1.336,0,0,0-1.06,1.37,1.321,1.321,0,0,0,1.06,1.52l16.56,3.9c.86.2,1.72.44,2.6.61a3.727,3.727,0,0,0,1.78-.21l9.32-2.49,4.18-1.12a1.581,1.581,0,0,0,.42.18q3.705.93,7.38,1.9-11.34,3.03-22.69,6.05l-28.03,7.5q-13.98,3.735-27.95,7.46-13.95,3.705-27.88,7.45l-.56.15-.18.04c-.54.13-1.08.29-1.62.44l-7.88,2.1-17.46,4.66-.72.19-25.76-7.02c-1.13-.31-2.26-.63-3.4-.93a.191.191,0,0,1-.07-.01l-.03-.01c-.14-.04-.28-.07-.43-.11-.62-.18-1.24-.34-1.87-.51l-15.21-4.15q-10.11-2.76-20.24-5.52-11.37-3.09-22.75-6.19l-27.62-7.52c-.17-.05-.33-.1-.5-.14-.07-.02-.15-.03-.22-.05l-.8-.22-5.42-1.48-16.51-4.51q-10.14-2.76-20.28-5.52l-14.59-3.97c-.46-.13-.92-.28-1.39-.38a1.8,1.8,0,0,0-.23-.04c-.08-.03-.2-.07-.27-.09-1.89-.62-3.86-1.05-5.77-1.58-.82-.22-1.63-.45-2.44-.68a1.339,1.339,0,0,0-1.3-.82,1.314,1.314,0,0,0-.8.23c-3.09-.89-6.18-1.77-9.3-2.5-.12-.03-.24-.05-.36-.07a.6.6,0,0,0-.08-.04,9.751,9.751,0,0,0-1.18-.32l-5.17-1.41-25.51-6.96c13.94-2,27.83-4.3,41.7-6.67q26.52-4.515,52.96-9.42,14.73-2.7,29.44-5.49c-.26-.48-.51-.96-.77-1.44-.23-.44-.47-.88-.7-1.32q-11.325,2.145-22.66,4.23-16.32,3.015-32.68,5.92-5.625,1.02-11.27,1.99-4.17.75-8.34,1.47c-16.72,2.89-33.45,5.7-50.25,8.1-1.68.24-3.37.48-5.06.71h-.02l-.11.01a1.2,1.2,0,0,0-.85.63,1.249,1.249,0,0,0-.25.82l.9,19.74c.04.93.08,1.87.12,2.8a1.555,1.555,0,0,0,1.1,1.45l6.35,1.74,17.25,4.74,25.52,7.01,31.13,8.55,33.98,9.33,34.41,9.45,31.99,8.78,27.12,7.46,19.51,5.35c3.08.85,6.15,1.76,9.24,2.54.13.03.26.07.4.11h.04a1,1,0,0,0,.25.04c.02,0,.04.01.07.01a1.7,1.7,0,0,0,.44-.05l14.04-3.91,33.7-9.39,40.61-11.32,35.09-9.77c5.67-1.58,11.43-2.98,17.04-4.75l.24-.06a1.518,1.518,0,0,0,1.1-1.45Zm-28.62-4.3c-.43.12-.86.22-1.28.34a13.208,13.208,0,0,0-1.77-.33l-9.65-2.27-1.7-.4,10.31-2.65c.42-.11.85-.21,1.27-.32a15.1,15.1,0,0,0,1.78.32l9.64,2.18,1.71.38Zm-118.7,59.1-17.25-4.74-25.52-7-31.14-8.55-33.97-9.34-34.42-9.45-31.98-8.78-27.13-7.45-19.51-5.36c-2.84-.78-5.7-1.73-8.58-2.38l-.84-18.55-.04-.82,23.08,6.3,12.66,3.45c.37.1.75.22,1.12.31.09.02.18.03.26.04a1.732,1.732,0,0,1,.2.07c1.84.59,3.74,1.02,5.59,1.52,4.67,1.28,9.33,2.71,14.04,3.83.08.02.17.05.26.07.14.04.23.06.3.08.46.16.96.26,1.43.39l6.26,1.7q11.415,3.1,22.84,6.22l27.61,7.53c.26.07.53.16.79.22.07.01.13.03.19.04a5.437,5.437,0,0,0,.54.15l5.24,1.43,16.56,4.51q10.155,2.76,20.31,5.53,10.485,2.85,20.95,5.7l16.2,4.42,6.62,1.8c.6.17,1.2.34,1.8.49.13.03.25.08.38.1l.24.06q13.305,3.615,26.6,7.25l1.76.48.86,18.98c.01.32.03.63.04.94Zm132.24-33.55-33.71,9.39-40.61,11.32-35.09,9.77-11.51,3.2c-1.28.36-2.66.64-3.97,1.02q-.4-9.06-.82-18.11c-.03-.6-.06-1.2-.08-1.8l12.55-3.35c4.71-1.25,9.51-2.34,14.19-3.77l.1-.03c.07-.02.15-.05.25-.07l.66-.18,2.66-.71,9.11-2.44q7.71-2.055,15.43-4.13,13.965-3.72,27.93-7.44,13.935-3.72,27.86-7.46,13.545-3.615,27.1-7.22.375,8.429.77,16.86c.02.52.04,1.04.07,1.56Zm-220.34-52.86c-.02.01-.05.01-.08.02C-459.07-4193.63-458.71-4193.81-459.33-4193.67Zm1.36,5.25c.03-.01.05-.01.07-.02C-458.23-4188.45-458.58-4188.27-457.97-4188.42Zm-1.36-5.25c-.02.01-.05.01-.08.02C-459.07-4193.63-458.71-4193.81-459.33-4193.67Zm1.36,5.25c.03-.01.05-.01.07-.02C-458.23-4188.45-458.58-4188.27-457.97-4188.42Zm173.54,9.67a1.967,1.967,0,0,1-.4.1.6.6,0,0,1-.25-.13.911.911,0,0,0,.19.15.563.563,0,0,0,.38.08C-284.27-4178.61-284.17-4178.86-284.43-4178.75Zm-7.79,9.56a1.491,1.491,0,0,0-1.01-1l-1.07-.25a9.216,9.216,0,0,0,2.1,1.36A.424.424,0,0,0-292.22-4169.19Zm7.79-9.56a1.967,1.967,0,0,1-.4.1.6.6,0,0,1-.25-.13.911.911,0,0,0,.19.15.563.563,0,0,0,.38.08C-284.27-4178.61-284.17-4178.86-284.43-4178.75Zm-73.99-15.4c-.88-1.6-1.74-3.22-2.56-4.86l-9.16-2.07a9.247,9.247,0,0,0-4.24-.42l-5.01,1.09a.488.488,0,0,1-.07-.03c-1.37-.36-2.74-.74-4.1-1.11a1.54,1.54,0,0,0,.24-2.16,1.484,1.484,0,0,0-.74-.51l-15.6-3.52a9.442,9.442,0,0,0-4.19-.41l-8.76,1.8-1.01.21a1.47,1.47,0,0,0,.02-2.08,1.528,1.528,0,0,0-.66-.39l-30.24-7.56-7.56-1.89c-1.02-.25-2.07-.62-3.11-.78a6.3,6.3,0,0,0-1.74.16c.29.98.58,1.95.86,2.93.11-.02.23-.05.34-.08h.02a1.7,1.7,0,0,1,.22-.05c.5-.13.14.08-.22.05.25.07.58.1.74.15l5.73,1.43,33.37,8.34.5.13-4.66.96a1.268,1.268,0,0,0-1.07,1.45v.03a1.307,1.307,0,0,0,1.07,1.41l15.56,3.66c.82.2,1.65.42,2.47.59a4.066,4.066,0,0,0,1.77-.15l8.63-1.87,2.78-.6a1.494,1.494,0,0,0,.86.68c.73.2,1.46.39,2.19.59l-5,1.08a1.313,1.313,0,0,0-1.07,1.49,1.321,1.321,0,0,0,1.07,1.4l15.84,3.72c.82.2,1.64.42,2.47.58a3.761,3.761,0,0,0,1.76-.15l8.75-1.97,3.74-.85C-358.26-4193.87-358.34-4194.01-358.42-4194.15Zm-42.98-6.49c-.62.16-.3-.01.03-.01Zm1.18-.25c-.35.07-.69.14-1.04.22a9.966,9.966,0,0,0-1.73-.33l-9.17-2.16-.5-.12,8.66-1.78c.39-.08.79-.15,1.18-.24a12.509,12.509,0,0,0,1.62.29l9.3,2.1.49.11Zm27.02,2.21c.64-.16.28.03-.06.01Zm1.33,4.97a2.11,2.11,0,0,1-.34.07.67.67,0,0,1,.38-.08Zm1.25-.28c-.37.08-.75.16-1.12.25a12.421,12.421,0,0,0-1.72-.33l-9.44-2.22-.65-.15,9.1-1.97,1.11-.24a11.306,11.306,0,0,0,1.72.31l9.45,2.14.66.15ZM-435.71-4208a1.49,1.49,0,0,0-1-1.01l-6.33-1.43c-2.38-.53-4.79-1.26-7.21-1.62a13.023,13.023,0,0,0-4.52.64c.12.41.24.81.36,1.22a1.57,1.57,0,0,1,.04.21,1.48,1.48,0,0,1-1.31,1.65,5.493,5.493,0,0,1-3.17,1.75,44.293,44.293,0,0,1-4.46.35,14.187,14.187,0,0,1-3.26.07l-.23.06c-.06.01-.11.02-.16.03a1.468,1.468,0,0,1-1.67-1.23,14.843,14.843,0,0,1-.89-1.34l-11.82,2.19-36.65,6.79-31.09,5.77-3.49.64c-.24.05-.5.08-.75.14l-.4.07c-5.23.9-10.45,1.95-15.67,2.93l-1.6.3c-1.5.28-1.35,2.52,0,2.89l12.56,3.43c1.53.42,3.1,1.01,4.67,1.28,1.39.23,3.21-.49,4.56-.77,4.36-.89,8.76-1.71,13.1-2.68a.076.076,0,0,0,.03-.01c.02,0,.05-.01.07-.01s.02-.01.04-.01c.06-.01.14-.03.24-.05l.48-.1,1.96-.4,7.02-1.45q10.95-2.25,21.89-4.51,12.12-2.49,24.26-5c3.08-.63,6.17-1.26,9.25-1.9.05-.14.11-.27.16-.4a46.252,46.252,0,0,1,2.2-4.74,1.3,1.3,0,0,1,1.57-.69,1.33,1.33,0,0,1,.92-.25,28.477,28.477,0,0,0,10.43-1.1,1.663,1.663,0,0,1,.38-.05,1.5,1.5,0,0,1,1.52,1.5,10.463,10.463,0,0,0,.13,2.17l.79-.15,16.05-3.3A1.5,1.5,0,0,0-435.71-4208Zm23.56,9.85-15.82-3.72a9.2,9.2,0,0,0-4.23-.44l-8.73,1.8-7.62,1.56a1.3,1.3,0,0,0-1.07,1.46.076.076,0,0,1,.01.04,1.329,1.329,0,0,0,1.06,1.4l15.83,3.87c.81.2,1.63.43,2.46.6a4.03,4.03,0,0,0,1.76-.14l8.74-1.88,7.61-1.65a1.459,1.459,0,0,0,1.51-1.45A1.429,1.429,0,0,0-412.15-4198.15Zm-18.86-1.35c.64-.15.27.03-.07.01Zm1.33,4.96c-.62.16-.3-.01.03-.01Zm1.25-.27c-.37.08-.74.16-1.1.24a11.489,11.489,0,0,0-1.73-.35l-9.43-2.3-.63-.15,9.06-1.87c.36-.08.73-.14,1.09-.23a10.285,10.285,0,0,0,1.74.34l9.43,2.22.64.15Zm-38.86,9.81a1.544,1.544,0,0,0-1.01-1.01l-16.06-4.07c-1.53-.4-2.85-.9-4.42-.58l-9.02,1.86-7.64,1.57-.13.03-.07.01a1.278,1.278,0,0,0-1.06,1.46.127.127,0,0,0,.01.06,1.347,1.347,0,0,0,1.05,1.37l16.17,4.26c.87.23,1.75.5,2.63.7a3.929,3.929,0,0,0,1.74-.14l9.09-1.96,7.71-1.67A1.522,1.522,0,0,0-467.29-4185Zm-20.02-2.9a.908.908,0,0,1-.33.06A1.46,1.46,0,0,1-487.31-4187.9Zm2.32,5.33c-.37.08-.74.15-1.11.24a11.561,11.561,0,0,0-1.83-.41l-9.59-2.53-1.15-.3,9.86-2.03c.34-.07.68-.13,1.01-.21a11,11,0,0,0,1.97.44l9.54,2.42,1.04.27Zm132.44-1.64a.522.522,0,0,0-.11.05l-16.14-3.8c-.86-.2-1.72-.44-2.58-.61a4.071,4.071,0,0,0-1.8.16l-9.03,2.04-7.71,1.75a1.31,1.31,0,0,0-1.07,1.5,1.333,1.333,0,0,0,1.07,1.39l16.11,3.96c.86.21,1.72.45,2.58.63a3.932,3.932,0,0,0,1.8-.17l9.04-2.14,7.73-1.83c.97,0,1.79-.19,2.04-.93A7.368,7.368,0,0,1-352.55-4184.21Zm-16.83,3.81-1.16.27a13.666,13.666,0,0,0-1.8-.37l-9.53-2.34-1.13-.28,9.76-2.21,1.16-.26a11.14,11.14,0,0,0,1.81.36l9.53,2.25,1.15.27Zm77.18,11.32a.424.424,0,0,0-.02-.11,1.491,1.491,0,0,0-1.01-1l-1.07-.25-15.5-3.65c-.86-.2-1.73-.45-2.6-.62a3.988,3.988,0,0,0-1.78.2l-9.33,2.3-7.8,1.93a1.338,1.338,0,0,0-1.06,1.42,1.328,1.328,0,0,0,1.06,1.47l16.55,4.04c.86.22,1.72.46,2.6.64a3.76,3.76,0,0,0,1.82-.2l9.2-2.36,7.91-2.03A1.5,1.5,0,0,0-292.2-4169.08Zm-18.01,3.04c-.42.11-.85.21-1.27.33a11.5,11.5,0,0,0-1.75-.35l-9.79-2.39-1.6-.39,10.31-2.55c.42-.1.84-.2,1.25-.31a12.177,12.177,0,0,0,1.8.34l9.65,2.27,1.71.4Zm-10.03,4.05a1.51,1.51,0,0,0-1.01-1l-15.96-3.89a20.114,20.114,0,0,1-1.99,2.6l9.67,2.36,1.7.42-10.56,2.71c-.42.11-.84.21-1.25.32a12.991,12.991,0,0,0-1.75-.36l-10.03-2.55-1.7-.43.52-.13a2.6,2.6,0,0,1-1.53-2.52,1.6,1.6,0,0,1,.05-.21l-5.62,1.39a1.344,1.344,0,0,0-1.06,1.48,1.348,1.348,0,0,0,1.06,1.42l16.69,4.23c.89.22,1.79.49,2.69.68a3.715,3.715,0,0,0,1.81-.19l9.27-2.39,7.99-2.05A1.517,1.517,0,0,0-320.24-4161.99Zm-28,7.2a1.544,1.544,0,0,0-1.01-1.01l-16.78-4.25c-.93-.24-1.87-.52-2.81-.71a3.671,3.671,0,0,0-1.8.18l-9.26,2.28-8.2,2.02c-.03.01-.05.02-.08.03a.544.544,0,0,0-.07.02,1.346,1.346,0,0,0-.91,1.47,1.355,1.355,0,0,0,1.06,1.37l16.78,4.42c.93.24,1.87.53,2.81.74a3.787,3.787,0,0,0,1.8-.19l9.26-2.38,8.2-2.1A1.522,1.522,0,0,0-348.24-4154.79Zm-18.35,3.25c-.4.1-.82.2-1.22.31a12.168,12.168,0,0,0-1.88-.41l-10.02-2.64-1.92-.5,10.87-2.68c.41-.1.82-.19,1.22-.3a12.141,12.141,0,0,0,1.88.4l10.02,2.54,1.92.49Zm20.06,11.78a1.509,1.509,0,0,0-1-1.01l-17.15-4.51c-.92-.25-1.84-.54-2.77-.73a3.631,3.631,0,0,0-1.79.18l-9.65,2.48-7.94,2.04a1.331,1.331,0,0,0-.37.12,1.354,1.354,0,0,0-.85,1.46,1.349,1.349,0,0,0,.9,1.3l.06.02a.924.924,0,0,0,.1.04l17.14,4.67c.92.25,1.84.55,2.77.76a3.629,3.629,0,0,0,1.79-.19l9.65-2.58,8.11-2.16A1.516,1.516,0,0,0-346.53-4139.76Zm-18.66,3.49c-.4.11-.8.21-1.2.32a12.48,12.48,0,0,0-1.92-.44l-10.13-2.76-2.29-.63,11.39-2.93,1.2-.3a12.7,12.7,0,0,0,1.92.42l10.13,2.67,2.3.61Zm46.7-10.98a1.544,1.544,0,0,0-1.01-1.01l-16.95-4.3c-.92-.23-1.85-.51-2.79-.71a3.813,3.813,0,0,0-1.8.19l-9.48,2.43-8.17,2.1-.06.03a.555.555,0,0,0-.1.03,1.352,1.352,0,0,0-.9,1.43,1.34,1.34,0,0,0,.92,1.35l.03.02c.04.01.07.03.11.04l16.95,4.46c.93.25,1.86.55,2.8.75a3.667,3.667,0,0,0,1.8-.2l9.47-2.54,8.17-2.19A1.507,1.507,0,0,0-318.49-4147.25Zm-18.55,3.47c-.4.11-.82.21-1.22.33a11.774,11.774,0,0,0-1.85-.4l-10.23-2.7-1.99-.53,11.18-2.87c.41-.1.82-.2,1.22-.31a11.988,11.988,0,0,0,1.85.39l10.22,2.59,2,.51Zm46.53-10.94a1.544,1.544,0,0,0-1.01-1.01l-16.87-4.12c-.89-.22-1.77-.48-2.67-.66a3.813,3.813,0,0,0-1.8.19l-9.5,2.44-7.96,2.05a1.341,1.341,0,0,0-1.06,1.42,1.34,1.34,0,0,0,.92,1.42l.02.01c.04.01.08.03.12.04l16.87,4.28c.89.23,1.77.5,2.67.68a3.556,3.556,0,0,0,1.8-.2l9.5-2.53,7.96-2.12A1.522,1.522,0,0,0-290.51-4154.72Zm-18.35,3.41c-.42.11-.83.21-1.25.33a11.844,11.844,0,0,0-1.88-.4l-9.86-2.5-2.01-.51,10.88-2.8c.41-.11.83-.2,1.24-.32a12.212,12.212,0,0,0,1.89.38l9.86,2.42,2.02.49Zm-186.56-27.62a1.544,1.544,0,0,0-1.01-1.01l-16.3-4.3c-.89-.23-1.77-.5-2.67-.7a4.159,4.159,0,0,0-1.79.12l-8.9,1.83-7.78,1.6a1.708,1.708,0,0,0-.37.1,1.269,1.269,0,0,0-.9,1.48,1.365,1.365,0,0,0,1.05,1.37l16.18,4.4c1.53.42,2.91,1,4.49.67l9-1.95,7.99-1.72A1.522,1.522,0,0,0-495.42-4178.93Zm-20.26-3.13a1.183,1.183,0,0,1-.32.06A1.555,1.555,0,0,1-515.68-4182.06Zm1.11,5.87a1.081,1.081,0,0,1-.27.06.92.92,0,0,1,.34-.08A.19.19,0,0,1-514.57-4176.19Zm1.23-.26c-.33.07-.67.13-1,.21a11.675,11.675,0,0,0-2-.48l-9.74-2.65-1.16-.32,10.08-2.08c.33-.06.66-.13.99-.2a12.084,12.084,0,0,0,1.96.46l9.68,2.54,1.27.34Zm47.76,5.37a1.5,1.5,0,0,0-1.01-1.01l-16.42-4.32c-1.53-.4-2.91-.97-4.48-.64l-9.23,2-7.77,1.68a1.567,1.567,0,0,0-.37.1,1.289,1.289,0,0,0-.9,1.49,1.369,1.369,0,0,0,1.06,1.35l16.49,4.5c.9.24,1.8.53,2.71.74a3.892,3.892,0,0,0,1.76-.13l9.15-2.07,8-1.81A1.511,1.511,0,0,0-465.58-4171.08Zm-20.76-3.15a1.081,1.081,0,0,1,.27-.06.63.63,0,0,1-.32.08C-486.37-4174.21-486.36-4174.22-486.34-4174.23Zm1.43,6.1a1.688,1.688,0,0,1-.32.07.749.749,0,0,1,.37-.08Zm1.28-.29c-.37.09-.75.16-1.12.25a12.325,12.325,0,0,0-1.91-.45l-9.82-2.68-1.51-.41,10.43-2.25c.33-.07.67-.13,1-.21a14.451,14.451,0,0,0,2.07.48l9.66,2.54,1.53.4Zm47.81,5.15a1.51,1.51,0,0,0-1.01-1l-16.57-4.36c-.93-.24-1.85-.52-2.78-.73a3.878,3.878,0,0,0-1.76.13l-9.24,2.09-7.89,1.79a1.208,1.208,0,0,0-.37.1,1.31,1.31,0,0,0-.89,1.48,1.38,1.38,0,0,0,1.06,1.36l16.57,4.51c.92.25,1.84.54,2.78.76a3.629,3.629,0,0,0,1.76-.14l9.24-2.19,8.09-1.91A1.518,1.518,0,0,0-435.82-4163.27Zm-20.95-3.15c.57-.15.29.02-.03.01Zm1.12,6.41a.778.778,0,0,1,.31-.07A1.074,1.074,0,0,1-455.65-4160.01Zm.34-.07h-.02l.02-.01Zm1.24-.3c-.37.08-.74.16-1.11.26a12.514,12.514,0,0,0-1.88-.45l-10.03-2.73-1.58-.43,10.63-2.4c.37-.09.75-.16,1.12-.26a11.881,11.881,0,0,0,1.88.44l10.03,2.63,1.59.42Zm48.01,4.95a1.51,1.51,0,0,0-1-1.01l-16.77-4.42c-1.57-.41-2.92-.97-4.52-.59l-9.47,2.24-7.88,1.86a1.509,1.509,0,0,0-.36.11,1.326,1.326,0,0,0-.88,1.48,1.361,1.361,0,0,0,1.06,1.35l16.78,4.57c.92.25,1.84.54,2.77.75a3.357,3.357,0,0,0,1.75-.14l9.47-2.33,8.05-1.98A1.508,1.508,0,0,0-406.06-4155.43Zm-21.12-3.22c.57-.17.29.03-.05.02Zm1.44,6.62c-.57.18-.29-.03.04-.01Zm1.25-.31c-.36.1-.74.17-1.11.28a11.675,11.675,0,0,0-2.02-.48l-9.87-2.69-1.91-.52,10.96-2.6c.37-.08.75-.16,1.12-.26a12.619,12.619,0,0,0,2.02.47l9.85,2.6,1.92.5Zm48.23,4.74a1.53,1.53,0,0,0-1.01-1l-17-4.47c-.93-.25-1.86-.54-2.8-.74a3.637,3.637,0,0,0-1.79.18l-9.45,2.33-7.97,1.96a1.587,1.587,0,0,0-.37.11,1.333,1.333,0,0,0-.86,1.47,1.346,1.346,0,0,0,1.05,1.36l17.05,4.65c.9.25,1.8.54,2.71.74a3.5,3.5,0,0,0,1.84-.17l9.45-2.43,8.14-2.1A1.518,1.518,0,0,0-376.26-4147.6Zm-19.86,3.65c-.58.19-.27-.02.05-.02C-396.09-4143.96-396.1-4143.96-396.12-4143.95Zm1.37-.36c-.4.1-.81.19-1.21.31a13.353,13.353,0,0,0-1.99-.46l-10-2.73-2.14-.58,11.12-2.74c.4-.1.8-.19,1.2-.3a10.968,10.968,0,0,0,1.87.41l10.26,2.7,2.01.53Zm-13.01-25.6a1.491,1.491,0,0,0-1.01-1l-16.48-4.17c-1.54-.39-2.85-.9-4.42-.54l-9.28,2.1-7.73,1.74a.139.139,0,0,0-.06.02l-.1.02c-.04.01-.08.03-.12.04l-.02.01a1.3,1.3,0,0,0-.92,1.48,1.346,1.346,0,0,0,1.06,1.37l16.48,4.33c.9.23,1.8.51,2.7.71a3.63,3.63,0,0,0,1.73-.15l9.28-2.2,7.88-1.87A1.517,1.517,0,0,0-407.76-4169.91Zm-18.07,2.85c-.37.09-.75.16-1.11.26a12.591,12.591,0,0,0-1.94-.43l-9.66-2.53-1.59-.42,10.36-2.34c.36-.09.74-.16,1.1-.25a11.878,11.878,0,0,0,1.95.41l9.65,2.44,1.6.41Zm-14.4-25.03-7.26-1.77c1.72,1.47,3.22,3.11,3.25,5.53l4.01-.87a1.454,1.454,0,0,0,1.5-1.44A1.426,1.426,0,0,0-440.23-4192.09Zm-16.1,4.36a36.649,36.649,0,0,1-8.23-2.2c-.3-.13-.61-.27-.93-.41l-3.59-.91-.9-.23,1.83-.38a10.108,10.108,0,0,1-2.66-2.5l-6.11,1.26h-.02l-.13.02a1.278,1.278,0,0,0-1.07,1.46.076.076,0,0,0,.01.05,1.341,1.341,0,0,0,1.06,1.39l15.94,4.04c.86.22,1.72.48,2.59.66a3.889,3.889,0,0,0,1.76-.14l5.88-1.27Q-453.63-4187.265-456.33-4187.73Zm18.81,10.29a1.477,1.477,0,0,0-1-1l-16.3-4.15c-1.56-.4-2.87-.9-4.45-.56l-9.07,1.96-7.74,1.68a.363.363,0,0,0-.1.02l-.08.02a1.3,1.3,0,0,0-1.06,1.5v.02a1.346,1.346,0,0,0,1.06,1.37l16.36,4.3c.88.23,1.75.5,2.64.7a3.929,3.929,0,0,0,1.77-.13l9.06-2.05,7.91-1.79A1.512,1.512,0,0,0-437.52-4177.44Zm-19.14,2.92c-.6.17-.3-.02.04-.01Zm1.21-.27c-.36.08-.71.15-1.07.24a11.206,11.206,0,0,0-1.91-.43l-9.82-2.59-1.18-.31,10.05-2.17c.37-.08.75-.15,1.11-.24a12.292,12.292,0,0,0,1.89.41l9.75,2.48,1.29.33Zm46.04-9.01a1.545,1.545,0,0,0-1.01-1.01l-16.17-3.95c-1.53-.38-2.82-.85-4.38-.51l-9.1,1.97-7.72,1.67a1.3,1.3,0,0,0-1.06,1.5v.01a1.332,1.332,0,0,0,1.06,1.38l16.18,4.12c.87.22,1.75.48,2.64.67a3.749,3.749,0,0,0,1.73-.14l9.1-2.07,7.72-1.75A1.521,1.521,0,0,0-409.41-4183.8Zm-17.72,2.61c-.37.08-.75.16-1.13.25a12.341,12.341,0,0,0-1.81-.38l-9.6-2.45-1.19-.3,9.77-2.11c.38-.08.76-.16,1.13-.24a12.511,12.511,0,0,0,1.82.37l9.59,2.35,1.2.29Zm45.77-8.95a1.5,1.5,0,0,0-1.01-1.01l-15.96-3.75a9.374,9.374,0,0,0-4.36-.47l-8.84,1.91-7.72,1.66a1.308,1.308,0,0,0-1.06,1.5v.1a1.319,1.319,0,0,0,1.06,1.3l15.95,3.9c.86.21,1.73.46,2.6.64a4.041,4.041,0,0,0,1.76-.15l8.85-2,7.72-1.75A1.507,1.507,0,0,0-381.36-4190.14Zm-20.14-2.42c.61-.15.27.04-.07.01A.166.166,0,0,0-401.5-4192.56Zm1.37,5.25c-.61.16-.28-.03.06-.02Zm1.17-.27c-.34.08-.69.15-1.02.23a11.926,11.926,0,0,0-1.85-.37l-9.43-2.31-.91-.23,9.5-2.05c.34-.07.68-.14,1.01-.22a11.8,11.8,0,0,0,1.86.36l9.43,2.22.92.22Zm105.06,4.5a1.544,1.544,0,0,0-1.01-1.01l-16.15-3.65c-.86-.2-1.72-.41-2.58-.58a4.018,4.018,0,0,0-1.79.17l-4.7,1.11-4.44-.9a1.508,1.508,0,0,0,.92-1.93,1.535,1.535,0,0,0-.98-.93l-13.88-3.12c.5,1.14,1.01,2.28,1.55,3.41l4.26.97,1,.23-4.21,1c.44.9.89,1.8,1.36,2.69l.03.06,2.27-.54,1.95-.47a1.346,1.346,0,0,0,.9.71c.77.16,1.54.31,2.31.47l-5.11,1.21a1.32,1.32,0,0,0-1.07,1.43,1.326,1.326,0,0,0,1.07,1.46l16.15,3.8c.86.19,1.72.43,2.59.6a3.876,3.876,0,0,0,1.79-.17l9.04-2.23,7.72-1.9A1.522,1.522,0,0,0-293.9-4183.08Zm-17.71,2.92-1.17.28a13.614,13.614,0,0,0-1.8-.35l-9.55-2.24-1.14-.27,5.19-1.23c.68.14,1.36.28,2.03.41a1.541,1.541,0,0,0,1.85-1.04,1.031,1.031,0,0,0,.04-.3l.66-.15,1.18-.28a13.589,13.589,0,0,0,1.8.34l9.54,2.15,1.15.27Zm-43.01-7.46c-.89-1.46-1.76-2.92-2.61-4.4l-4.23.96a1.313,1.313,0,0,0-1.07,1.49,1.321,1.321,0,0,0,1.07,1.4l7.56,1.78C-354.14-4186.82-354.38-4187.24-354.62-4187.62Zm-26.1,10.09-16.36-4.02c-.86-.21-1.71-.45-2.57-.63a4.1,4.1,0,0,0-1.84.17l-8.97,2.03-7.93,1.8a1.324,1.324,0,0,0-1.06,1.51,1.36,1.36,0,0,0,1.06,1.39l16.27,4.11c1.55.39,2.86.91,4.44.54l9.05-2.14,7.91-1.87a1.458,1.458,0,0,0,1.51-1.45A1.415,1.415,0,0,0-380.72-4177.53Zm-16.86,3.79c-.37.09-.75.17-1.12.27a12.017,12.017,0,0,0-1.87-.4l-9.73-2.46-1.26-.32,10.07-2.29,1.14-.26a12.212,12.212,0,0,0,1.8.38l9.66,2.37,1.37.34Zm19.58,11.4a1.545,1.545,0,0,0-1.01-1.01l-16.67-4.25c-.89-.23-1.78-.5-2.68-.69a3.837,3.837,0,0,0-1.81.18l-9.3,2.2-7.85,1.85-.05.01-.11.03c-.03.01-.05.02-.08.03s-.04.01-.07.02a1.324,1.324,0,0,0-.91,1.48,1.345,1.345,0,0,0,1.06,1.36l16.73,4.41c.87.24,1.75.51,2.64.7a3.717,3.717,0,0,0,1.81-.18l9.29-2.28,8-1.97A1.521,1.521,0,0,0-378-4162.34Zm-18.25,3.04c-.38.1-.77.18-1.16.29a10.2,10.2,0,0,0-1.88-.42l-9.9-2.61-1.71-.46,10.6-2.51c.41-.1.82-.18,1.23-.29a11.887,11.887,0,0,0,1.77.38l10.02,2.56,1.7.43Zm45.24-10.95-16.46-4.03c-1.54-.38-2.86-.88-4.42-.51l-9.27,2.19-7.88,1.86a1.342,1.342,0,0,0-1.06,1.52,1.338,1.338,0,0,0,1.06,1.37l16.45,4.2c1.54.4,2.85.92,4.41.53l9.28-2.29,5.82-1.43c.14-.19.29-.38.45-.56.64-.91,1.3-1.81,1.95-2.71A2.485,2.485,0,0,0-351.01-4170.25Zm-17.06,4.02c-.37.09-.76.17-1.13.27a13.976,13.976,0,0,0-1.92-.41l-9.63-2.46-1.6-.4,10.36-2.46c.37-.09.75-.16,1.12-.26a12.68,12.68,0,0,0,1.93.39l9.64,2.37,1.61.4Zm46.15-9.94a1.491,1.491,0,0,0-1.01-1l-9.14-2.15c.05.06.1.13.15.2a3.9,3.9,0,0,1,.4,3l.42.1,1.38.32-2.1.52a9.637,9.637,0,0,1-.95,1.76c-.42.63-.85,1.26-1.28,1.89l3.28-.81,7.84-1.94A1.518,1.518,0,0,0-321.92-4176.17Zm-19.97-5.45a4,4,0,0,0-1.85.18l-1.44.34a1.23,1.23,0,0,1,.4.19,1.243,1.243,0,0,1,1.11-.07,7.133,7.133,0,0,0,4.09-.11C-340.35-4181.27-341.12-4181.48-341.89-4181.62Zm-4.83.88-6,1.42-7.95,1.88a1.327,1.327,0,0,0-1.06,1.49,1.32,1.32,0,0,0,1.06,1.4l11.17,2.74c.29-.43.57-.86.84-1.3a10.92,10.92,0,0,0,.67-1.43l-4.5-1.1-1.37-.33,6.62-1.57a12.2,12.2,0,0,0,.07-2.18,1.566,1.566,0,0,1,.27-.81A1.243,1.243,0,0,1-346.72-4180.74Zm61.89,2.09-.03.01-.03.01a.563.563,0,0,0,.38.08C-284.62-4178.58-284.72-4178.61-284.83-4178.65Zm20.58,2.28a1.524,1.524,0,0,0-1.01-1.01l-5.18-1.17a1.359,1.359,0,0,1-.16.1c-1.19.66-2.36,1.37-3.5,2.15l.59.13,1.46.33-4.19,1.08c-1.84,1.49-3.58,3.21-5.56,4.53l8.73-2.25,7.81-2.01A1.511,1.511,0,0,0-264.25-4176.37Zm-30.81-2.85-7.83,1.93a1.334,1.334,0,0,0-1.06,1.39,1.331,1.331,0,0,0,1.06,1.51l7.26,1.71a1.468,1.468,0,0,1,.7-1,15.484,15.484,0,0,0,2.47-1.34l-2.27-.54-1.35-.31,6.49-1.6c.16-.16.31-.34.46-.51a15.263,15.263,0,0,0,1.91-2.98s.04-.09.1-.21Zm32.55,17.02a1.524,1.524,0,0,0-1.01-1.01l-16.78-3.94c-.86-.2-1.72-.44-2.58-.61a4.176,4.176,0,0,0-1.89.23l-9.19,2.36-8.01,2.06a1.349,1.349,0,0,0-1.06,1.38,1.328,1.328,0,0,0,1.06,1.51l16.66,4.08c.89.22,1.78.47,2.68.66a3.846,3.846,0,0,0,1.81-.2l9.3-2.49,8-2.14A1.522,1.522,0,0,0-262.51-4162.2Zm-18.19,3.38c-.42.11-.85.21-1.27.33a12.658,12.658,0,0,0-1.73-.34l-10.02-2.45-1.69-.42,10.62-2.73,1.26-.32a13.154,13.154,0,0,0,1.77.34l9.88,2.32,1.8.42Zm-187.46-266.42c0-.14-.01-.28-.02-.43a1.007,1.007,0,0,1-.25.05,1.216,1.216,0,0,1-.6-.03,1.013,1.013,0,0,1-.51-.27,1.126,1.126,0,0,1-.39-.42l-.99-1.32a1.54,1.54,0,0,1-.2-.76l.06-.4a1.567,1.567,0,0,1,.38-.66l.3-.23a1.129,1.129,0,0,1,.56-.18,1.107,1.107,0,0,1,.6.03,1.013,1.013,0,0,1,.51.27.911.911,0,0,1,.23.25,26.628,26.628,0,0,0-.5-2.81,1.206,1.206,0,0,1-.42-.04l-2.32-.95a1.466,1.466,0,0,1-.67-.39l-.23-.3a1.493,1.493,0,0,1-.15-1.15,1.484,1.484,0,0,1,.69-.9,1.093,1.093,0,0,1,.56-.18,1.118,1.118,0,0,1,.6.02l.85.35c-.22-.54-.46-1.08-.73-1.61-.06-.11-.13-.22-.19-.33-.4.22-.8.43-1.22.61a17.084,17.084,0,0,1-7.31,1.27c-2.31-.05-5.52-.35-6.97,1.91a1.162,1.162,0,0,1-.2.25,1.368,1.368,0,0,1-.42.59,8.354,8.354,0,0,0-2.44,3.26c-.47,1.19-.49,2.6-1.5,3.52-.99.9-2.42.32-3.32,1.22-.97.96-.4,2.04.33,2.92,1.47,1.77,3,3.65,2.09,6.1a3.037,3.037,0,0,1-2.56,2.01,7.56,7.56,0,0,1-2-.3,10.923,10.923,0,0,0-2.49.05,4.667,4.667,0,0,1-.74-.06,23.673,23.673,0,0,1-4.8,9.43,97.161,97.161,0,0,1,16.07,18.97c.5-1.83.98-3.68,1.41-5.53-.08-.22-.16-.43-.22-.63a16.542,16.542,0,0,1,.91-11.44c-3.57-2.21-5.09-6.4-6.18-10.38a1.505,1.505,0,0,1,1.05-1.85,1.51,1.51,0,0,1,1.85,1.05c1.21,4.46,3.11,9.53,8.51,9.7,4.63.15,8.56-2.76,10.63-6.75C-468.39-4415.82-468.03-4420.69-468.16-4425.24Zm-15.9-3.7a1.547,1.547,0,0,1-2.12,0,1.509,1.509,0,0,1,0-2.12,12.769,12.769,0,0,1,4.88-2.87,1.52,1.52,0,0,1,1.84,1.05,1.569,1.569,0,0,1-.15,1.16,1.577,1.577,0,0,1-.9.68c-.25.08-.49.18-.73.27a11.2,11.2,0,0,0-2.17,1.27C-483.63-4429.32-483.85-4429.14-484.06-4428.94Zm2.8,7.87c-.46-.53-.93-1.05-1.4-1.58a1.567,1.567,0,0,1-.38-.66l-.06-.4a1.542,1.542,0,0,1,.44-1.06,1.132,1.132,0,0,1,.49-.32,1.1,1.1,0,0,1,.57-.12,1.16,1.16,0,0,1,.58.12,1.132,1.132,0,0,1,.49.32l1.4,1.58a1.51,1.51,0,0,1,.38.66l.05.4a1.49,1.49,0,0,1-.43,1.06,1.111,1.111,0,0,1-.49.31,1.041,1.041,0,0,1-.58.13,1.027,1.027,0,0,1-.57-.13A1.111,1.111,0,0,1-481.26-4421.07Zm8.7,8.04c-2.31,1.21-5.34,2.41-7.76.78a1.545,1.545,0,0,1-.54-2.06,1.508,1.508,0,0,1,2.05-.53c.11.07.22.14.33.2.03.01.06.03.09.04.11.03.23.07.35.1l.08.02a2,2,0,0,1,.35.02c.13,0,.26,0,.39-.01l.11-.01c.11-.02.21-.04.31-.06a10.055,10.055,0,0,0,1.5-.48l.13-.06c.12-.06.25-.11.37-.17.25-.12.49-.24.73-.37a1.533,1.533,0,0,1,2.05.54A1.51,1.51,0,0,1-472.56-4413.03Zm1.54-8.92a1.5,1.5,0,0,1-1.06.44,1.5,1.5,0,0,1-1.06-.44l-3.21-4.04a1.525,1.525,0,0,1-.39-.66l-.05-.4a1.5,1.5,0,0,1,.44-1.06,1.54,1.54,0,0,1,1.06-.44,1.5,1.5,0,0,1,1.06.44l3.21,4.04a1.434,1.434,0,0,1,.39.66l.05.4A1.5,1.5,0,0,1-471.02-4421.95Zm174.81,53.82c.32,1.26.6,2.53.87,3.8q7.125-4.62,13.78-9.9a1.348,1.348,0,0,1-.11-.55,34.015,34.015,0,0,0-1.77-10.34c-.99-2.94-2.73-5.63-3.36-8.67a56.961,56.961,0,0,1-19.73,3.98c.19.17.37.34.55.52a1.5,1.5,0,0,1-2.12,2.12,11.1,11.1,0,0,0-1.43-1.22,1.188,1.188,0,0,1-.45.15,1.284,1.284,0,0,1-1.45-1.1c-.01-.07-.03-.14-.04-.22a17.968,17.968,0,0,0-8.05-1.58c-1.14.01-2.3.07-3.45.16-2.16,1.88-5.19,2.32-7.96,2.64a29.842,29.842,0,0,1-5.43.13c-.52-.03-1.01-.09-1.5-.13a104.419,104.419,0,0,0-18.73,6.76c-3.84,1.82-7.59,3.82-11.27,5.94-.96.55-1.9,1.14-2.83,1.74a21.959,21.959,0,0,0,2.12,5.53c.92,1.89,1.74,3.81,2.47,5.78a60.455,60.455,0,0,1,3.05,11.92c7.9-2.6,15.8-5.18,23.78-7.55,1.86-.55,2.64,2.35.8,2.89q-2.82.84-5.62,1.7-5.775,1.8-11.52,3.68a1.413,1.413,0,0,1-.04.54,139.522,139.522,0,0,0-3.81,48.58c11.49-5.35,24.14-9.71,36.94-7.69a1.465,1.465,0,0,1,1.79-.32c6.62,3.32,14.7,4.61,20.31,9.71.46-2.63.92-5.27,1.35-7.9,3.23-19.92,4.97-40.51-.03-60.3C-299.58-4369.21-296.68-4370-296.21-4368.13Zm-18.9-66.6a9.048,9.048,0,0,0-9.27-1.65c-.02.01-.05.02-.07.03a1.178,1.178,0,0,1-1.54-.62c-8.06,1.26-13.3,8.94-15.38,16.41a50.951,50.951,0,0,0-1.36,6.83,14.7,14.7,0,0,1,4.91,1.7,36.754,36.754,0,0,0,4.82,1.99l-1.26-1.12a1.5,1.5,0,0,1-.23-1.82,39.861,39.861,0,0,0,2.58-3.99c.38-.68.73-1.37,1.07-2.07.34-.72.62-1.35.88-2.02a1.539,1.539,0,0,1,1.47-1.09,1.663,1.663,0,0,1,.38.05,1.489,1.489,0,0,1,1.04,1.84,38.305,38.305,0,0,1-4.15,7.79l.38.34a1.509,1.509,0,0,1,0,2.12,1.294,1.294,0,0,1-.73.4,26.662,26.662,0,0,0,4.5.87c1.52.15,3.03-.15,4.53.22a7.146,7.146,0,0,1,2.12.92c.52.33.94.88,1.45,1.2.42.25.42.25.72.15,1.39-2.12,2.66-4.33,3.82-6.55.42-.81.82-1.63,1.19-2.47a1.316,1.316,0,0,1,.27-.64,22.786,22.786,0,0,0,1.95-8.71C-311.01-4428.35-312.18-4432.26-315.11-4434.73Zm-18.77,13.32a1.124,1.124,0,0,1-.18.56l-.85,1.8a1.486,1.486,0,0,1-.9.69,1.564,1.564,0,0,1-1.16-.15,1.213,1.213,0,0,1-.42-.39,1.2,1.2,0,0,1-.27-.51,1.109,1.109,0,0,1-.02-.6,1.221,1.221,0,0,1,.17-.56l.86-1.8a1.459,1.459,0,0,1,.9-.69,1.539,1.539,0,0,1,1.15.15,1.057,1.057,0,0,1,.42.39,1.014,1.014,0,0,1,.27.51A1.021,1.021,0,0,1-333.88-4421.41Zm12.49,4.64a6.4,6.4,0,0,1-.54,1.33,7.17,7.17,0,0,1-.82,1.16,1.523,1.523,0,0,1-1.07.44,1.535,1.535,0,0,1-1.06-.44,1.176,1.176,0,0,1-.31-.48,1.3,1.3,0,0,1-.13-.58,1.294,1.294,0,0,1,.13-.58,1.148,1.148,0,0,1,.3-.46,5.4,5.4,0,0,0,.48-.81c.04-.12.09-.25.13-.37a1.523,1.523,0,0,1,.69-.9,1.449,1.449,0,0,1,1.15-.15,1.082,1.082,0,0,1,.51.26,1.153,1.153,0,0,1,.39.43,1.059,1.059,0,0,1,.18.55A1.217,1.217,0,0,1-321.39-4416.77Zm9.23,23.7a19.277,19.277,0,0,0-3.52-.8,5.948,5.948,0,0,0,1.2-3.54,31.686,31.686,0,0,0,.35-4.86C-313.62-4399.2-312.83-4396.14-312.16-4393.07Z" fill="#fff"/></g></g></svg>